<svg xmlns="http://www.w3.org/2000/svg" xmlns:xlink="http://www.w3.org/1999/xlink" xmlns:lucid="lucid" width="1080" height="940"><g transform="translate(0 0)" lucid:page-tab-id="0_0"><path d="M0 0h1760v1360H0z" fill="#fff"/><path d="M20 26c0-3.3 2.7-6 6-6h1028c3.3 0 6 2.7 6 6v888c0 3.3-2.7 6-6 6H26c-3.3 0-6-2.7-6-6z" stroke="#232f3e" stroke-width="3" fill="#fff" fill-opacity="0"/><path d="M20 20h56v56H20V20z" stroke="#fff" stroke-opacity="0" fill="#232f3e"/><path d="M60.88 61.22h-25c-4.13.05-7.57-3.1-7.9-7.2v-.64c-.15-3.4 1.97-6.38 5.25-7.36v-.66c.12-4.22 2.44-7.75 6.24-9.57 4.12-1.86 8.73-.96 11.8 2.3 1.1 1.1 1.85 2.2 2.45 3.6 1.2-1 2.72-1.32 4.24-.9 2.24.8 3.68 2.74 3.76 5.1 3.68.65 6.32 3.8 6.28 7.56 0 7.07-7.04 7.73-7.12 7.76zm-26.7-13.88c-2.83.6-4.75 3.14-4.6 6.04v.53c.3 3.33 3.1 5.84 6.4 5.76h24.98c3.04-.3 5.4-2.64 5.68-5.7.28-3.43-2.24-6.5-5.68-6.78-.44-.05-.72-.44-.64-.87.08-1.83-1-3.44-2.72-4.13-1.32-.37-2.64.13-3.44 1.24-.2.25-.44.38-.76.33-.28-.05-.48-.24-.6-.5-.6-1.6-1.4-2.85-2.6-4.04-2.68-2.8-6.6-3.6-10.13-2-3.24 1.6-5.2 4.63-5.32 8.24-.04.4-.04.74 0 1.14.04.4-.2.76-.6.84z" stroke="#fff" stroke-opacity="0" fill="#fff"/><use xlink:href="#a" transform="matrix(1,0,0,1,91,40) translate(0 14.4)"/><path d="M539.5 161c0-3.3 2.7-6 6-6h288c3.3 0 6 2.7 6 6v608c0 3.3-2.7 6-6 6h-288c-3.3 0-6-2.7-6-6z" fill="#fff" fill-opacity="0"/><path d="M563.5 155h12m12 0h12m12 0h12m12 0h12m12 0h12m12 0h12m12 0h12m12 0h12m12 0h12m12 0h12m12 0h12m12 0h6l3.03.82 2.15 2.15.82 3.03v6.08m0 12.16v12.16m0 12.16v12.16m0 12.16v12.16m0 12.16v12.16m0 12.16v12.16m0 12.16V313m0 12.16v12.16m0 12.16v12.16m0 12.16v12.16m0 12.16v12.16m0 12.16v12.16m0 12.16v12.16m0 12.16v12.16m0 12.16v12.16m0 12.16v12.16m0 12.16v12.16m0 12.16v12.16m0 12.16v12.16m0 12.16v12.16m0 12.16v12.16m0 12.16v12.16m0 12.16v12.16m0 12.16v12.16m0 12.16v12.16m0 12.16V769l-.82 3.03-2.15 2.15-3.03.82h-6m-12 0h-12m-12 0h-12m-12 0h-12m-12 0h-12m-12 0h-12m-12 0h-12m-12 0h-12m-12 0h-12m-12 0h-12m-12 0h-12m-12 0h-12m-12 0h-6l-3.03-.82-2.15-2.15-.82-3.03v-6.08m0-12.16V738.6m0-12.16v-12.16m0-12.16v-12.16m0-12.16v-12.16m0-12.16v-12.16m0-12.16V617m0-12.16v-12.16m0-12.16v-12.16m0-12.16v-12.16m0-12.16v-12.16m0-12.16V495.4m0-12.16v-12.16m0-12.16v-12.16m0-12.16v-12.16m0-12.16v-12.16m0-12.16V373.8m0-12.16v-12.16m0-12.16v-12.16m0-12.16v-12.16m0-12.16v-12.16m0-12.16V252.2m0-12.16v-12.16m0-12.16v-12.16m0-12.16v-12.16m0-12.16V161l.82-3.03 2.15-2.15 3.03-.82h6" stroke="#d86613" stroke-width="3" fill="none"/><path d="M539.5 155h56v56h-56v-56z" stroke="#fff" stroke-opacity="0" stroke-width="2" fill="#d86613"/><path d="M558 182.18c.07.06.1.13.2.17.1.1.2.2.33.27l.08.06.4.2.22.1h.18l.18.08c.35.12.73.27 1.17.4l.7.2.34.1c1.96.48 3.67.7 5.7.67 3.07.06 5.7-.44 8.5-1.62 1.22-.56 1.93-1.66 1.95-3v-10.7c0-.47-.25-.86-.67-1.07L568 163.7c-.3-.15-.67-.15-.98 0l-9.3 4.33c-.42.2-.67.6-.67 1.06v10.75c0 .83.27 1.54.8 2.2.05.05.1.1.16.13zm3.8.1l-.6-.18-1.06-.36-.27-.12-.25-.1c-.1-.05-.17-.1-.25-.13l-.2-.16-.07-.1-.07-.06-.06-.07c-.3-.34-.44-.72-.44-1.17V170l8.22 3.84v9.13c-1.63-.02-3-.2-4.6-.58zm13.6-.8c-2.38 1.03-4.58 1.5-7.17 1.5v-9l8.22-3.74v9.56c.02.76-.38 1.38-1.05 1.7zm-7.9-16.37l8.26 3.87-8.13 3.64-.05-.03-8.02-3.73z" stroke="#fff" stroke-opacity="0" stroke-width="2" fill="#fff"/><path d="M580.4 175.67l-.4 1.43c3.34 1 5.44 2.4 5.44 3.66 0 2.47-7.38 5.23-17.94 5.23-10.56 0-17.94-2.77-17.94-5.24 0-1.27 2.1-2.67 5.44-3.66l-.4-1.43c-4.18 1.23-6.5 3.05-6.5 5.1 0 4.35 10 6.7 19.4 6.7 9.4 0 19.4-2.35 19.4-6.7 0-2.05-2.32-3.86-6.5-5.1zM580.35 189.83l-3.47-1.5c-.28-.13-.56-.13-.84 0l-3.55 1.53c-.34.17-.52.46-.52.82v3.85l-3.32-1.45c-.28-.14-.56-.14-.83 0l-3.35 1.45v-3.87c0-.36-.2-.7-.53-.83l-3.5-1.5c-.26-.13-.56-.13-.84 0l-3.54 1.53c-.33.17-.5.46-.5.82v4.54c0 .38.2.7.55.85l3.5 1.5h.06c.13.04.23.07.38.07.13 0 .26 0 .36-.08l3.37-1.45v3.86c0 .37.2.68.53.84l3.48 1.5h.05c.12.06.25.08.4.08.13 0 .26-.02.38-.08l3.56-1.53c.33-.17.5-.47.53-.84v-3.82l3.3 1.46h.1c.12.05.25.08.4.1.12-.02.23-.05.33-.1l3.57-1.5c.33-.14.5-.46.5-.8v-4.6c0-.36-.2-.7-.55-.83zm-3.9-.07l2.03.88-1.9.77-1.98-.84zm-8.22 4.77l2.03.86-1.9.74-1.98-.82zm-8.2-4.77l2 .88-1.9.75-1.96-.84zm-3 1.95l2.25.96v3.14l-2.26-.96zm3.75 4.1v-3l2.23-.92v3zm4.46.67l2.26.96v3.1l-2.26-.95zm3.73 4.1v-3l2.25-.93v2.98zm4.5-8.86l2.22.96v3.14l-2.24-.96zm3.7 4.1v-2.98l2.27-.94v3z" stroke="#fff" stroke-opacity="0" stroke-width="2" fill="#fff"/><use xlink:href="#b" transform="matrix(1,0,0,1,610.5,175) translate(0 14.4)"/><use xlink:href="#c" transform="matrix(1,0,0,1,610.5,175) translate(41.95 14.4)"/><path d="M220 122c0-16.57 13.43-30 30-30h600c16.57 0 30 13.43 30 30v728c0 16.57-13.43 30-30 30H250c-16.57 0-30-13.43-30-30z" stroke="#474747" fill-opacity="0"/><path d="M328 94.4v3.54c0 6.42-7.1 13.05-15.76 13.05h-46.48c-8.66 0-15.75-6.64-15.75-13.06V94.4z" fill="#9d5125"/><path d="M280.03 60c8.03 0 14.82 4.4 18.17 11.67 4.6-3.14 10.92-1.98 14.04 2.65 1.17 1.64 1.7 3.32 1.8 5.3 7.87.68 13.95 8.25 13.95 14.27v1.3c0 6.45-7.1 13-15.76 13h-46.5c-8.64 0-15.74-6.55-15.74-13v-1.3c0-5.02 4.2-11.87 10.06-13.56v-.57c.08-10.95 8.97-19.82 19.97-19.77z" fill="#f58535"/><path d="M268.9 83.13h3.08l3.1 14.58 3.32-14.54h3.1l-4.6 18.2h-3.7zM283.37 83.13h5.77c3.5 0 5.04 2.2 5.04 5.3 0 3.1-1.9 5.4-5.33 5.4h-2.57v7.53h-2.9zm2.9 8.5h2.08c1.56 0 2.9-.83 2.9-3.14 0-1.98-.78-3.17-3.1-3.17h-1.87zM307.8 94.83v.38c0 3.32-1.3 6.52-5.6 6.52-4.6 0-6.04-2.97-6.04-9.47s1.43-9.46 6.05-9.46c5.2 0 5.54 3.8 5.54 5.7v.37h-2.9v-.3c0-1.7-.5-3.64-2.6-3.57-2.08.08-3.1 1.35-3.1 7.22 0 5.87.92 7.3 3.14 7.3 2.42 0 2.7-2.7 2.7-4.42v-.3z" fill="#fff"/><path d="M120 545.42l57.98 8.62v5.1c0 7.53-25.98 13.63-58 13.63-32 0-57.98-6.1-57.98-13.64v-5.53z" fill="#8c3123"/><path d="M120.02 582.13c24.2 0 44.93-3.54 53.58-8.5l2.88-4.78 1.15-4.4v5.45l-19 81c0 5.08-17.3 9.1-38.6 9.1-21.33 0-38.6-4.02-38.6-9.1l-19.02-81v-5.35l4.38 9.27c8.76 4.87 29.27 8.3 53.24 8.3z" fill="#8c3123"/><path d="M120 540c32 0 58 6.12 58 13.62 0 7.5-26 13.57-58 13.57s-58-6.02-58-13.58c0-7.56 26-13.62 58-13.62z" fill="#e05243"/><path d="M120 576.6c29.84 0 54.4-5.2 57.62-12.06l-19.02 81c0 5.05-17.3 9.1-38.6 9.1-21.33 0-38.6-4.05-38.6-9.1l-19.03-81C65.6 571.4 90.15 576.6 120 576.6z" fill="#e05243"/><use xlink:href="#d" transform="matrix(1,0,0,1,62,660) translate(44.41975308641975 17.77777777777778)"/><path d="M1009.52 668.03c0 11.84-9.63 21.46-21.5 21.46-11.86 0-21.5-9.63-21.5-21.47 0-11.85 9.64-21.47 21.5-21.47 11.87 0 21.5 9.62 21.5 21.47z" fill="#4b612c"/><path d="M988.02 691.97c-13.23 0-23.97-10.72-23.97-23.94 0-13.2 10.74-23.94 23.97-23.94 13.23 0 23.97 10.72 23.97 23.93 0 13.22-10.75 23.94-23.98 23.94zm0-42.95c-10.5 0-19.03 8.53-19.03 19 0 10.5 8.52 19.02 19.02 19.02s19.03-8.52 19.03-19c-.05-10.5-8.53-18.97-19.03-19.02z" fill="#4b612c"/><path d="M1009.52 663.93c0 11.85-9.63 21.47-21.5 21.47-11.86 0-21.5-9.62-21.5-21.47 0-11.84 9.64-21.46 21.5-21.46 11.87 0 21.5 9.62 21.5 21.46z" fill="#fff"/><path d="M988.02 687.88c-13.23 0-23.97-10.73-23.97-23.94 0-13.2 10.74-23.94 23.97-23.94 13.23 0 23.97 10.73 23.97 23.94 0 13.2-10.75 23.94-23.98 23.94zm0-42.95c-10.5 0-19.03 8.52-19.03 19 0 10.5 8.52 19.02 19.02 19.02s19.03-8.52 19.03-19c-.05-10.5-8.53-18.97-19.03-19.02z" fill="#4f4f4f"/><path d="M978.07 663.1h11.58v4.96h-11.58v-4.95z" fill="#4f4f4f"/><path d="M987.2 648.98h4.96v19.08h-4.96v-19.08z" fill="#4f4f4f"/><path d="M923.22 700.07h17.7v43.66h-17.7v-43.66zM951.2 708.57h17.7v35.15h-17.7v-35.15zM1000.1 750.65V760H920v-9.35h80.1zM979.17 694.82v48.9h17.7v-48.9c-5.7 3.08-12 3.08-17.7 0z" fill="#4b612c"/><path d="M923.22 695.97h17.7v43.65h-17.7v-43.65zM951.2 704.48h17.7v35.14h-17.7v-35.14zM1000.1 746.55v9.33H920v-9.33h80.1zM979.17 690.72v48.9h17.7v-48.9c-5.7 3.08-12 3.08-17.7 0z" fill="#759c3e"/><use xlink:href="#e" transform="matrix(1,0,0,1,920,760) translate(-14 17.77777777777778)"/><use xlink:href="#f" transform="matrix(1,0,0,1,920,760) translate(17.60493827160494 44.44444444444444)"/><path d="M629.5 507.6h120V569h-120v-61.4z" fill="#9d5025"/><path d="M629.5 502h120v61.4h-120V502z" fill="#f58536"/><path d="M655.42 505.67h5.65v54.08h-5.65v-54.08zM634.6 505.67h5.64v54.08h-5.65v-54.08zM645 505.67h5.66v54.08H645v-54.08zM717.9 505.67h5.66v54.08h-5.66v-54.08zM728.32 505.67h5.65v54.08h-5.65v-54.08zM738.74 505.67h5.65v54.08h-5.66v-54.08z" fill="#fbbf93"/><path d="M636.06 507.13h4.2v52.62h-4.2v-52.62zM646.48 507.13h4.2v52.62h-4.2v-52.62zM656.9 507.13h4.18v52.62h-4.18v-52.62zM719.38 507.13h4.2v52.62h-4.2v-52.62zM729.8 507.13h4.18v52.62h-4.18v-52.62zM740.2 507.13h4.2v52.62h-4.2v-52.62z" fill="#fff"/><path d="M681.28 518.9h16.45c5.67 0 5.67 0 5.67 5.64v16.37c0 5.65 0 5.65-5.67 5.65h-16.45c-5.66 0-5.66 0-5.66-5.64v-16.36c0-5.64 0-5.64 5.66-5.64z" fill="#d16929"/><path d="M697.7 548.24h-16.43c-4.05 0-7.36-3.3-7.36-7.33v-16.37c0-4.03 3.32-7.32 7.37-7.32h16.46c4.05 0 7.36 3.3 7.36 7.33v16.38c0 4.05-3.32 7.34-7.37 7.34h-.03zm-16.43-27.65c-2.18 0-3.96 1.76-3.96 3.93v16.38c0 2.2 1.8 3.95 3.97 3.95h16.46c2.18 0 3.96-1.76 3.96-3.94v-16.37c0-2.17-1.8-3.94-3.97-3.94z" fill="#fff"/><path d="M680.73 520.6c-.93 0-1.7-.77-1.7-1.7v-6.2c0-.93.77-1.7 1.7-1.7.94 0 1.7.77 1.7 1.7v6.2c0 .93-.76 1.7-1.7 1.7zM686.53 520.6c-.94 0-1.7-.77-1.7-1.7v-6.2c0-.93.76-1.7 1.7-1.7s1.7.77 1.7 1.7v6.2c0 .93-.76 1.7-1.7 1.7zM692.3 520.6c-.94 0-1.7-.77-1.7-1.7v-6.2c0-.93.76-1.7 1.7-1.7s1.7.77 1.7 1.7v6.2c0 .93-.76 1.7-1.7 1.7zM698.1 520.6c-.94 0-1.7-.77-1.7-1.7v-6.2c0-.93.76-1.7 1.7-1.7s1.7.77 1.7 1.7v6.2c0 .93-.76 1.7-1.7 1.7zM680.73 554.43c-.93 0-1.7-.75-1.7-1.68v-6.2c0-.93.77-1.7 1.7-1.7.94 0 1.7.77 1.7 1.7v6.2c0 .93-.76 1.68-1.7 1.68zM686.53 554.43c-.94 0-1.7-.75-1.7-1.68v-6.2c0-.93.76-1.7 1.7-1.7s1.7.77 1.7 1.7v6.2c0 .93-.76 1.68-1.7 1.68zM692.3 554.43c-.94 0-1.7-.75-1.7-1.68v-6.2c0-.93.76-1.7 1.7-1.7s1.7.77 1.7 1.7v6.2c0 .93-.76 1.68-1.7 1.68zM698.1 554.43c-.94 0-1.7-.75-1.7-1.68v-6.2c0-.93.76-1.7 1.7-1.7s1.7.77 1.7 1.7v6.2c0 .93-.76 1.68-1.7 1.68zM709.62 525.77h-6.25c-.93 0-1.7-.75-1.7-1.7 0-.92.77-1.68 1.7-1.68h6.23c.93 0 1.7.75 1.7 1.68 0 .94-.77 1.7-1.7 1.7zM709.62 531.5h-6.25c-.93 0-1.7-.74-1.7-1.67 0-.94.77-1.7 1.7-1.7h6.23c.93 0 1.7.76 1.7 1.7 0 .93-.77 1.68-1.7 1.68zM709.62 537.28h-6.25c-.93 0-1.7-.75-1.7-1.7 0-.92.77-1.67 1.7-1.67h6.23c.93 0 1.7.76 1.7 1.7 0 .93-.77 1.68-1.7 1.68zM709.62 543.03h-6.25c-.93 0-1.7-.76-1.7-1.7 0-.92.77-1.68 1.7-1.68h6.23c.93 0 1.7.76 1.7 1.7 0 .92-.77 1.68-1.7 1.68zM675.52 525.77h-6.23c-.94 0-1.7-.75-1.7-1.7 0-.92.76-1.68 1.7-1.68h6.22c.93 0 1.7.75 1.7 1.68 0 .94-.77 1.7-1.7 1.7zM675.52 531.5h-6.23c-.94 0-1.7-.74-1.7-1.67 0-.94.76-1.7 1.7-1.7h6.22c.93 0 1.7.76 1.7 1.7 0 .93-.77 1.68-1.7 1.68zM675.52 537.28h-6.23c-.94 0-1.7-.75-1.7-1.7 0-.92.76-1.67 1.7-1.67h6.22c.93 0 1.7.76 1.7 1.7 0 .93-.77 1.68-1.7 1.68zM675.52 543.03h-6.23c-.94 0-1.7-.76-1.7-1.7 0-.92.76-1.68 1.7-1.68h6.22c.93 0 1.7.76 1.7 1.7 0 .92-.77 1.68-1.7 1.68z" fill="#fff"/><path d="M683.88 527.13h11.22v11.17h-11.22v-11.17z" fill="#fbbf93"/><path d="M695.12 539.43H683.8c-.64 0-1.14-.5-1.14-1.13v-11.27c0-.62.5-1.12 1.13-1.12h11.32c.62 0 1.12.5 1.12 1.13v11.27c0 .63-.5 1.13-1.12 1.13zm-10.1-2.26h9.05v-9h-9.1z" fill="#fff"/><use xlink:href="#g" transform="matrix(1,0,0,1,629.5,569) translate(26.66666666666667 17.77777777777778)"/><use xlink:href="#h" transform="matrix(1,0,0,1,629.5,569) translate(7.901234567901241 44.44444444444444)"/><use xlink:href="#i" transform="matrix(1,0,0,1,629.5,569) translate(85.06172839506172 44.44444444444444)"/><path d="M933.36 99.12L909 137.88l24.36 38.76 19.48-4.97.94-67.28-20.42-5.28z" fill="#876929"/><path d="M960.56 169.66l-27.2 6.98V99.12l27.2 6.97v63.56z" fill="#d9a741"/><path d="M957.33 112.43l3.22 87.56 51.44-25.7v-65.43l-13.13 2.2-41.54 1.36z" fill="#876929"/><path d="M976.97 129.72l16.03-.95 15.86-28.73L968.76 80l-14.98 6.56 23.2 43.16z" fill="#876929"/><path d="M968.75 80l40.1 20.04L993 128.77 968.76 80z" fill="#d9a741"/><path d="M960.55 88.3l32.47 58.75 5.55 33.95-38.02 19-15.38-7.72V94.45l15.38-6.15z" fill="#876929"/><path d="M1012 108.85v65.45L960.56 200V88.3l32.45 58.75 18.97-38.2z" fill="#d9a741"/><use xlink:href="#j" transform="matrix(1,0,0,1,909,200) translate(10.79012345679012 17.77777777777778)"/><use xlink:href="#k" transform="matrix(1,0,0,1,909,200) translate(29.27777777777778 44.44444444444444)"/><path d="M916.5 518.88v56.28L966 600l49.5-24.84v-14.04l-42.08-5.28v-31.68l42.08-5.28v-14.04L966 480l-49.5 24.84v14.04z" fill="#876929"/><path d="M916.52 561.08l49.47 14.9v24l-49.48-24.8v-14.1z" fill="#876929"/><path d="M922.8 578.32l-6.3-3.15V504.8l6.33-3.13-.02 76.65z" fill="#876929"/><path d="M973.42 555.85l-50.6 7.13V517l50.6 7.17v31.68zM1015.5 518.92L966 503.97V480l49.5 24.87v14.05zM1015.47 561.1L966 576v24l49.47-24.86V561.1z" fill="#d9a741"/><path d="M947.76 552.86l18.23 2.28V524.7l-18.24 2.32v25.84zM929.4 550.6l11.83 1.46v-24.18l-11.83 1.5v21.2z" fill="#876929"/><path d="M922.83 517L966 504l49.5 14.9-42.08 5.25-50.6-7.16z" fill="#624a1e"/><path d="M922.8 562.98L966 576l49.48-14.9-42.06-5.26-50.6 7.14z" fill="#fad791"/><path d="M1015.47 548.88L966 555.14V524.7l49.47 6.34v17.84z" fill="#d9a741"/><use xlink:href="#l" transform="matrix(1,0,0,1,916.5,600) translate(26.043209876543216 17.77777777777778)"/><path d="M311.7 437.66h74.1c10.75 0 19.45 8.68 19.45 19.4v32.6c-3.84-2.02-12.2-4.17-24.63-4.17-5.1 0-9.27.33-14.24 1.12-8.36 1.36-12.77 3.72-12.77 5.2v55.4c0 .9 1.25 2.02 3.63 3.26H311.7c-10.75 0-19.45-8.7-19.45-19.4v-74.02c0-10.72 8.7-19.4 19.44-19.4z" fill="#19486f"/><path d="M311.68 433h74.12c10.74 0 19.44 8.7 19.44 19.4V485c-3.84-2.03-12.2-4.17-24.63-4.17-5.08 0-9.26.34-14.23 1.13-8.36 1.35-12.77 3.72-12.77 5.18v55.4c0 .9 1.25 2.02 3.62 3.26h-45.54c-10.73 0-19.43-8.7-19.43-19.4v-74c0-10.7 8.7-19.4 19.43-19.4z" fill="#2e73b8"/><path d="M382.54 495.72c-4.2-.02-7.8.25-11.96.9-3.76.24-6.97-.05-10.64-.94v5.3c0 1.25 3.7 3.25 10.64 4.37 4.17.67 7.75.93 11.96.9 14.73 0 22.7-3.47 22.7-5.26v-5.32zM359.4 511.34v36.36c0 1.87 6.4 5.25 21.6 5.25 6.62.16 12.3-.46 18.74-2.13 3.02-.96 5.17-2.12 5.4-2.9v-36.17c-4.44 2.75-13.6 4.25-22.7 4.25H378.7l-2.24-.37h-1.14l-1.78-.13-.96-.17-1.92-.25c-4.17-.54-7.6-1.66-11.25-3.74z" fill="#19486f"/><path d="M382.54 490.42c-4.2-.02-7.8.25-11.96.9-7.02 1.16-10.64 3.16-10.64 4.37 0 1.2 3.7 3.22 10.64 4.35 4.17.66 7.75.93 11.96.9 14.73 0 22.7-3.47 22.7-5.26 0-1.8-7.97-5.28-22.7-5.28zM359.4 506v36.37c0 1.87 6.4 5.25 21.6 5.25 6.62.16 12.3-.46 18.74-2.13 3.02-.96 5.17-2.13 5.4-2.92v-36.16c-4.44 2.75-13.6 4.25-22.7 4.25H378.7l-2.24-.37h-1.14l-1.78-.34h-.96l-1.92-.24c-4.17-.5-7.6-1.63-11.25-3.7z" fill="#2e73b8"/><path d="M311.73 545.77h45.44v4.65h-45.44c-10.78 0-19.48-8.7-19.48-19.4v-4.68.02c0 10.72 8.7 19.4 19.48 19.4z" fill="#19486f"/><path d="M308.77 446.33h6.6l3.16 15.55 3.2-15.55h6.57v22.02h-4v-17.57l-3.93 17.57h-3.6l-3.84-17.57v17.57h-4.16zM330.73 470.6c.38.04.7.04 1.1 0 1.58 0 2.13-.87 2.28-2.32l-4.55-16.52h4.27l2.55 11.43 2.12-11.48h4.26l-4 15.48c-1.5 5.75-2.46 6.54-6.4 6.54h-1.73zM349.7 461.48v.64c0 2.13.6 3.37 2.95 3.37h.34c1.38-.12 2.42-1.34 2.32-2.7 0-2.03-1.03-2.76-3.98-3.8-3.96-1.34-5.78-3-5.78-6.64 0-4.26 2.63-6.4 6.84-6.4 4.2 0 6.82 1.7 6.82 5.92v.67h-4.27c0-2.13-.7-3.28-2.4-3.28-.2-.02-.37-.02-.58 0-1.24.16-2.12 1.3-1.96 2.54 0 1.4.4 2.14 2.28 3l3.43 1.5c3.37 1.45 4.28 3.16 4.28 5.85 0 4.65-2.83 6.73-7.65 6.73s-7.02-2.34-7.02-6.4v-1zM374.1 471.08l-2.6-2.73c-.48.17-.9.27-1.37.35-.55.03-1.02.03-1.6 0-6.65 0-7.5-4.75-7.5-11.45 0-6.7.85-11.45 7.5-11.45 6.7 0 7.52 4.76 7.52 11.45.32 3.24-.23 6.04-1.7 8.92l2.38 2.43zm-5.56-5.56c2.62 0 3.06-2.25 3.06-8.17 0-5.9-.44-8.16-3.06-8.16s-3.06 2.26-3.06 8.15c0 5.9.44 8.17 3.06 8.17zM378.02 468.35v-22.02h4.45v18.4h7.9v3.62zM370.06 514.25h6.96l4.95 20.7 5.04-20.7h6.83v28.02h-4.26v-23.23l-5.7 23.23h-3.78l-5.62-23.23v23.23h-4.42z" fill="#fff"/><use xlink:href="#m" transform="matrix(1,0,0,1,292.25,553) translate(1.4074074074074119 17.77777777777778)"/><use xlink:href="#n" transform="matrix(1,0,0,1,292.25,553) translate(80.79012345679013 17.77777777777778)"/><use xlink:href="#o" transform="matrix(1,0,0,1,292.25,553) translate(15.172839506172842 44.44444444444444)"/><path d="M312.03 685.36h75.44c19.78 0 19.78 0 19.78 19.72v75.2c0 19.7 0 19.7-19.78 19.7h-75.44c-19.78 0-19.78 0-19.78-19.7v-75.2c0-19.72 0-19.72 19.78-19.72z" fill="#19486f"/><path d="M312.03 680h75.44c19.78 0 19.78 0 19.78 19.72v75.2c0 19.7 0 19.7-19.78 19.7h-75.44c-19.78 0-19.78 0-19.78-19.7v-75.2c0-19.72 0-19.72 19.78-19.72z" fill="#2e73b8"/><path d="M390.97 716.22v-8.63h-10.9v-10.86h-8.64v10.85h-4.3v-10.86h-8.73v10.85h-4.3v-10.86h-8.73v10.85h-4.28v-10.86h-8.75v10.85h-4.3v-10.86h-8.64v10.85h-10.88v8.62h10.9v4.27h-10.9v8.7h10.9v4.28h-10.9v8.7h10.9v4.28h-10.9v8.72h10.9v4.27h-10.9v8.63h10.9v10.85h8.64v-10.85h4.3v10.85h8.73v-10.85h4.27v10.85h8.74v-10.85h4.3v10.85h8.74v-10.85h4.3v10.85h8.64v-10.85h10.9v-8.63h-10.9v-4.27h10.9v-8.72h-10.9v-4.27h10.9v-8.72h-10.9v-4.28h10.9v-8.7h-10.9v-4.28h10.9z" fill="#fff"/><path d="M332.4 718.38h21.5c5.66-.35 10.5 3.9 10.86 9.5 0 .35.04.62 0 .93.24 4.37-2.36 8.15-6.5 9.5v.13c4.34 1.05 5.7 5.52 5.96 9.38.17 2.38.44 7.3 1.96 9.47h-8.3c-1.06-2.18-.92-6.2-1.36-9.27-.6-4-2.17-5.87-6.53-5.87h-8.93v15.14h-8.7zm8.67 17.28h9.8c3.8 0 5.85-1.63 5.85-5.5 0-3.84-2.06-5.32-5.85-5.32h-9.8z" fill="#2e73b8"/><use xlink:href="#p" transform="matrix(1,0,0,1,292.25,800) translate(29.166666666666664 17.77777777777778)"/><path d="M180 812.55l-53-7.78-53 7.78L127 850l53-37.45z" fill="#b7ca9d"/><path d="M84.6 811.7l8.95 2.64 21.05-32.3-21.05-32.3-8.94 3.43v58.52z" fill="#4b612c"/><path d="M125.27 808.9l-31.7 5.56v-64.7l31.7 7.1v52.03z" fill="#759c3e"/><path d="M111.1 819.75l-12.33-3.68V736.2l12.34-6.2 36.64 47.2-36.63 42.55z" fill="#4b612c"/><path d="M153.48 809.87l-42.35 9.97V730l42.35 16.53v63.34z" fill="#759c3e"/><path d="M126.98 831.4L74 812.56v10.93l52.98 26.5v-18.6z" fill="#4b612c"/><path d="M180 823.46L126.97 850v-18.6l53-18.83v10.9z" fill="#759c3e"/><path d="M165.1 794.5h-12.87l-36.6 2.5L127 824.5l38.1-30z" fill="#b7ca9d"/><path d="M115.63 821.1l11.36 3.4-.02-26.28-11.35-1.24v24.1z" fill="#4b612c"/><path d="M165.1 794.5l-38.12 3.72v26.3L165.1 813V794.5z" fill="#759c3e"/><use xlink:href="#e" transform="matrix(1,0,0,1,74,850) translate(-7 17.77777777777778)"/><use xlink:href="#q" transform="matrix(1,0,0,1,74,850) translate(28.925925925925924 44.44444444444444)"/><path d="M579.5 241c0-3.3 2.7-6 6-6h208c3.3 0 6 2.7 6 6v228c0 3.3-2.7 6-6 6h-208c-3.3 0-6-2.7-6-6z" fill="#fff" fill-opacity="0"/><path d="M595.9 235h8.9m5.96 0h8.9m5.95 0h8.93m5.94 0h8.92m5.93 0h8.9m5.96 0h8.9m5.94 0h8.92m5.94 0h8.9m5.96 0h8.9m5.95 0h8.93m5.94 0h8.92m5.93 0h8.9m5.96 0h8.9m5.94 0h4.46l3.03.82 2.15 2.15.82 3.03v4.56m0 6.08v9.12m0 6.08v9.12m0 6.08v9.12m0 6.08v9.12m0 6.08v9.12m0 6.08v9.12m0 6.08v9.12m0 6.08v9.12m0 6.08v9.12m0 6.08v9.12m0 6.08v9.12m0 6.08v9.12m0 6.08v9.12m0 6.08v9.12m0 6.08V469l-.82 3.03-2.15 2.15-3.03.82h-4.46m-5.94 0h-8.9m-5.96 0h-8.9m-5.95 0h-8.93m-5.94 0h-8.92m-5.93 0h-8.9m-5.96 0h-8.9m-5.94 0h-8.92m-5.94 0h-8.9m-5.96 0h-8.9m-5.95 0h-8.93m-5.94 0h-8.92m-5.93 0h-8.9m-5.96 0h-8.9m-5.94 0h-4.46l-3.03-.82-2.15-2.15-.82-3.03v-4.56m0-6.08v-9.12m0-6.08v-9.12m0-6.08v-9.12m0-6.08v-9.12m0-6.08v-9.12m0-6.08v-9.12m0-6.08v-9.12m0-6.08v-9.12m0-6.08v-9.12m0-6.08v-9.12m0-6.08v-9.12m0-6.08v-9.12m0-6.08v-9.12m0-6.08v-9.12m0-6.08V241l.82-3.03 2.15-2.15 3.03-.82h4.46" stroke="#d86613" stroke-width="3" fill="none"/><path d="M661.5 235h56v56h-56v-56z" stroke="#fff" stroke-opacity="0" fill="#d86613"/><path d="M681.18 258.73l-1.14 1.13 2.33 2.34H669.5v1.6h12.87l-2.33 2.34 1.14 1.13 4.27-4.27-4.27-4.27zM709.5 262.2h-12.87l2.33-2.34-1.14-1.13-4.27 4.27 4.27 4.27 1.14-1.13-2.33-2.34h12.87v-1.6zM688.7 245.63v12.87h1.6v-12.87l2.34 2.33 1.13-1.13-4.27-4.28-4.27 4.28 1.13 1.13 2.34-2.33zM690.3 280.37V267.5h-1.6v12.87l-2.34-2.33-1.13 1.13 4.27 4.28 4.27-4.28-1.13-1.13-2.34 2.33z" stroke="#fff" stroke-opacity="0" fill="#fff"/><use xlink:href="#r" transform="matrix(1,0,0,1,579.5,306) translate(59.55 14.4)"/><use xlink:href="#s" transform="matrix(1,0,0,1,579.5,306) translate(101.55 14.4)"/><path d="M629.5 351.6h120V413h-120v-61.4z" fill="#9d5025"/><path d="M629.5 346h120v61.4h-120V346z" fill="#f58536"/><path d="M655.42 349.67h5.65v54.08h-5.65v-54.08zM634.6 349.67h5.64v54.08h-5.65v-54.08zM645 349.67h5.66v54.08H645v-54.08zM717.9 349.67h5.66v54.08h-5.66v-54.08zM728.32 349.67h5.65v54.08h-5.65v-54.08zM738.74 349.67h5.65v54.08h-5.66v-54.08z" fill="#fbbf93"/><path d="M636.06 351.13h4.2v52.62h-4.2v-52.62zM646.48 351.13h4.2v52.62h-4.2v-52.62zM656.9 351.13h4.18v52.62h-4.18v-52.62zM719.38 351.13h4.2v52.62h-4.2v-52.62zM729.8 351.13h4.18v52.62h-4.18v-52.62zM740.2 351.13h4.2v52.62h-4.2v-52.62z" fill="#fff"/><path d="M681.28 362.9h16.45c5.67 0 5.67 0 5.67 5.64v16.37c0 5.65 0 5.65-5.67 5.65h-16.45c-5.66 0-5.66 0-5.66-5.64v-16.36c0-5.64 0-5.64 5.66-5.64z" fill="#d16929"/><path d="M697.7 392.24h-16.43c-4.05 0-7.36-3.3-7.36-7.33v-16.37c0-4.03 3.32-7.32 7.37-7.32h16.46c4.05 0 7.36 3.3 7.36 7.33v16.38c0 4.05-3.32 7.34-7.37 7.34h-.03zm-16.43-27.65c-2.18 0-3.96 1.76-3.96 3.93v16.38c0 2.2 1.8 3.95 3.97 3.95h16.46c2.18 0 3.96-1.76 3.96-3.94v-16.37c0-2.17-1.8-3.94-3.97-3.94z" fill="#fff"/><path d="M680.73 364.6c-.93 0-1.7-.77-1.7-1.7v-6.2c0-.93.77-1.7 1.7-1.7.94 0 1.7.77 1.7 1.7v6.2c0 .93-.76 1.7-1.7 1.7zM686.53 364.6c-.94 0-1.7-.77-1.7-1.7v-6.2c0-.93.76-1.7 1.7-1.7s1.7.77 1.7 1.7v6.2c0 .93-.76 1.7-1.7 1.7zM692.3 364.6c-.94 0-1.7-.77-1.7-1.7v-6.2c0-.93.76-1.7 1.7-1.7s1.7.77 1.7 1.7v6.2c0 .93-.76 1.7-1.7 1.7zM698.1 364.6c-.94 0-1.7-.77-1.7-1.7v-6.2c0-.93.76-1.7 1.7-1.7s1.7.77 1.7 1.7v6.2c0 .93-.76 1.7-1.7 1.7zM680.73 398.43c-.93 0-1.7-.75-1.7-1.68v-6.2c0-.93.77-1.7 1.7-1.7.94 0 1.7.77 1.7 1.7v6.2c0 .93-.76 1.68-1.7 1.68zM686.53 398.43c-.94 0-1.7-.75-1.7-1.68v-6.2c0-.93.76-1.7 1.7-1.7s1.7.77 1.7 1.7v6.2c0 .93-.76 1.68-1.7 1.68zM692.3 398.43c-.94 0-1.7-.75-1.7-1.68v-6.2c0-.93.76-1.7 1.7-1.7s1.7.77 1.7 1.7v6.2c0 .93-.76 1.68-1.7 1.68zM698.1 398.43c-.94 0-1.7-.75-1.7-1.68v-6.2c0-.93.76-1.7 1.7-1.7s1.7.77 1.7 1.7v6.2c0 .93-.76 1.68-1.7 1.68zM709.62 369.77h-6.25c-.93 0-1.7-.75-1.7-1.7 0-.92.77-1.68 1.7-1.68h6.23c.93 0 1.7.75 1.7 1.68 0 .94-.77 1.7-1.7 1.7zM709.62 375.5h-6.25c-.93 0-1.7-.74-1.7-1.67 0-.94.77-1.7 1.7-1.7h6.23c.93 0 1.7.76 1.7 1.7 0 .93-.77 1.68-1.7 1.68zM709.62 381.28h-6.25c-.93 0-1.7-.75-1.7-1.7 0-.92.77-1.67 1.7-1.67h6.23c.93 0 1.7.76 1.7 1.7 0 .93-.77 1.68-1.7 1.68zM709.62 387.03h-6.25c-.93 0-1.7-.76-1.7-1.7 0-.92.77-1.68 1.7-1.68h6.23c.93 0 1.7.76 1.7 1.7 0 .92-.77 1.68-1.7 1.68zM675.52 369.77h-6.23c-.94 0-1.7-.75-1.7-1.7 0-.92.76-1.68 1.7-1.68h6.22c.93 0 1.7.75 1.7 1.68 0 .94-.77 1.7-1.7 1.7zM675.52 375.5h-6.23c-.94 0-1.7-.74-1.7-1.67 0-.94.76-1.7 1.7-1.7h6.22c.93 0 1.7.76 1.7 1.7 0 .93-.77 1.68-1.7 1.68zM675.52 381.28h-6.23c-.94 0-1.7-.75-1.7-1.7 0-.92.76-1.67 1.7-1.67h6.22c.93 0 1.7.76 1.7 1.7 0 .93-.77 1.68-1.7 1.68zM675.52 387.03h-6.23c-.94 0-1.7-.76-1.7-1.7 0-.92.76-1.68 1.7-1.68h6.22c.93 0 1.7.76 1.7 1.7 0 .92-.77 1.68-1.7 1.68z" fill="#fff"/><path d="M683.88 371.13h11.22v11.17h-11.22v-11.18z" fill="#fbbf93"/><path d="M695.12 383.43H683.8c-.64 0-1.14-.5-1.14-1.13v-11.27c0-.62.5-1.12 1.13-1.12h11.32c.62 0 1.12.5 1.12 1.13v11.27c0 .63-.5 1.13-1.12 1.13zm-10.1-2.26h9.05v-9h-9.1z" fill="#fff"/><use xlink:href="#t" transform="matrix(1,0,0,1,629.5,413) translate(5.771604938271601 17.77777777777778)"/><use xlink:href="#u" transform="matrix(1,0,0,1,629.5,413) translate(46.48148148148148 44.44444444444444)"/><path d="M180 402.98L119.97 409v-29.07l60 6.02v17.03z" fill="#759c3e"/><path d="M60 402.98l59.98 6.02v-29.07L60 385.95v17.03z" fill="#4b612c"/><path d="M72 346h96.14v19.44H72V346z" fill="#648339"/><path d="M156.14 370.5h-72.1l-12.02-5.06h96.14l-12.02 5.05z" fill="#3c4929"/><path d="M72 423.55h96.14V443H72v-19.45z" fill="#648339"/><path d="M156.14 418.5h-72.1l-12.02 5.04h96.14l-12.02-5.05z" fill="#b7ca9d"/><use xlink:href="#v" transform="matrix(1,0,0,1,60,443) translate(10.123456790123448 17.77777777777778)"/><use xlink:href="#w" transform="matrix(1,0,0,1,60,443) translate(16.234567901234563 44.44444444444444)"/><path d="M395 202.36c0 31.8-25.76 57.63-57.5 57.63S280 234.16 280 202.35c0-31.8 25.76-57.63 57.5-57.63s57.5 25.82 57.5 57.63z" fill="#9d5025"/><path d="M395 197.63c0 31.8-25.76 57.63-57.5 57.63S280 229.44 280 197.63c0-31.8 25.76-57.63 57.5-57.63s57.5 25.82 57.5 57.63z" fill="#f58536"/><path d="M354.27 151.08V172H320.7v-20.92h33.57zM380.22 211.64v17.04h-17v-17.04h17zM358.73 211.64v17.04h-17v-17.04h17zM332.56 211.64v17.04h-17v-17.04h17zM311.05 211.64v17.04h-17v-17.04h17z" fill="#fff"/><path d="M301.02 196.9h3.06v16.7h-3.06v-16.7z" fill="#fff"/><path d="M301.02 196.9h24.57v3.05H301v-3.06z" fill="#fff"/><path d="M322.53 196.9h3.06v16.7h-3.07v-16.7zM348.7 196.9h3.06v16.7h-3.06v-16.7z" fill="#fff"/><path d="M348.7 196.9h24.56v3.05H348.7v-3.06z" fill="#fff"/><path d="M370.2 196.9h3.06v16.7h-3.05v-16.7zM311.8 184.95h3.06v13.47h-3.06v-13.47zM335.96 168.92h3.06v16.28h-3.06v-16.28z" fill="#fff"/><path d="M311.8 183.67h50.77v3.06H311.8v-3.06z" fill="#fff"/><path d="M359.5 184.95h3.07v13.47h-3.06v-13.47z" fill="#fff"/><use xlink:href="#t" transform="matrix(1,0,0,1,280,260) translate(3.271604938271601 17.77777777777778)"/><use xlink:href="#x" transform="matrix(1,0,0,1,280,260) translate(32.808641975308646 44.44444444444444)"/><use xlink:href="#y" transform="matrix(1,0,0,1,280,260) translate(13.734567901234563 71.11111111111111)"/><path d="M131 255.56L109.9 266V146l21.1 10.56v99z" fill="#f58536"/><path d="M88.8 255.56L109.9 266V146l-21.1 10.56v99z" fill="#9d5025"/><path d="M101.94 189.66l-35.58-4.5v-17.5l35.58 8.34v13.66z" fill="#f58536"/><path d="M60 170.83l6.36-3.16v17.5L60 186.9v-16.07z" fill="#9d5025"/><path d="M101.95 189.65l-7.38 1.1L60 186.9l6.38-1.74 35.57 4.5z" fill="#6b3a19"/><path d="M154.72 221.08L160 220v-14h-5.28v15.08z" fill="#f58536"/><path d="M117.8 217.92l36.9 3.42V206h-36.9v11.92z" fill="#9d5025"/><use xlink:href="#z" transform="matrix(1,0,0,1,60,266.0005599776009) translate(8.05555555555555 17.77777777777778)"/><path d="M978.34 374.44c.28-6.76 5.28-12.28 12.03-13.05v-59.62H920v77.7h58.34v-5.04z" fill="#4b612c"/><path d="M978.2 370.7c.28-6.82 5.42-12.32 12.17-13.1v-59.3H920v77.42h58.2v-5.03z" fill="#759c3e"/><path d="M1002.6 382.04v-8.1c-.57-5.02-4.38-8.82-9.38-9.42-5.86-.72-11.25 3.48-11.96 9.4v8.12h-5.5V400h32.23v-17.96zm-5.22 0h-10.96v-8.14c.03-2.77 2.32-4.98 5.1-4.94.16 0 .3 0 .4.03 2.92-.15 5.37 2.06 5.53 4.93z" fill="#4b612c"/><path d="M1002.6 378.25v-8.1c-.57-5.02-4.38-8.82-9.38-9.43-5.86-.7-11.25 3.5-11.96 9.43v8.1h-5.5v17.96h32.23v-17.95zm-5.22 0h-10.96v-8.1c.03-2.8 2.32-5.02 5.1-4.98.12 0 .25 0 .38.03 2.9-.14 5.32 2.07 5.52 4.95z" fill="#759c3e"/><path d="M988.8 289.66v3.76h-67.9v-3.76l33.95-9.18 33.95 9.18z" fill="#4b612c"/><path d="M979.23 280h-48l-10.32 9.67h67.9l-9.57-9.67z" fill="#759c3e"/><path d="M943.14 345.4h24.08v4.9h-24.08v-4.9zM943.14 334.2h24.08v4.9h-24.08v-4.9zM943.14 323h24.08v4.92h-24.08V323z" fill="#fff"/><path d="M933.85 311.8v49.72h42.7V311.8zm37.78 44.8h-32.87v-39.9h32.87z" fill="#fff"/><use xlink:href="#A" transform="matrix(1,0,0,1,920,400) translate(-7.7592592592592595 17.77777777777778)"/><use xlink:href="#B" transform="matrix(1,0,0,1,920,400) translate(17.48765432098766 44.44444444444444)"/><path d="M629.5 648.6h120V710h-120v-61.4z" fill="#9d5025"/><path d="M629.5 643h120v61.4h-120V643z" fill="#f58536"/><path d="M655.42 646.67h5.65v54.08h-5.65v-54.08zM634.6 646.67h5.64v54.08h-5.65v-54.08zM645 646.67h5.66v54.08H645v-54.08zM717.9 646.67h5.66v54.08h-5.66v-54.08zM728.32 646.67h5.65v54.08h-5.65v-54.08zM738.74 646.67h5.65v54.08h-5.66v-54.08z" fill="#fbbf93"/><path d="M636.06 648.13h4.2v52.62h-4.2v-52.62zM646.48 648.13h4.2v52.62h-4.2v-52.62zM656.9 648.13h4.18v52.62h-4.18v-52.62zM719.38 648.13h4.2v52.62h-4.2v-52.62zM729.8 648.13h4.18v52.62h-4.18v-52.62zM740.2 648.13h4.2v52.62h-4.2v-52.62z" fill="#fff"/><path d="M681.28 659.9h16.45c5.67 0 5.67 0 5.67 5.64v16.37c0 5.65 0 5.65-5.67 5.65h-16.45c-5.66 0-5.66 0-5.66-5.64v-16.36c0-5.64 0-5.64 5.66-5.64z" fill="#d16929"/><path d="M697.7 689.24h-16.43c-4.05 0-7.36-3.3-7.36-7.33v-16.37c0-4.03 3.32-7.32 7.37-7.32h16.46c4.05 0 7.36 3.3 7.36 7.33v16.38c0 4.05-3.32 7.34-7.37 7.34h-.03zm-16.43-27.65c-2.18 0-3.96 1.76-3.96 3.93v16.38c0 2.2 1.8 3.95 3.97 3.95h16.46c2.18 0 3.96-1.76 3.96-3.94v-16.37c0-2.17-1.8-3.94-3.97-3.94z" fill="#fff"/><path d="M680.73 661.6c-.93 0-1.7-.77-1.7-1.7v-6.2c0-.93.77-1.7 1.7-1.7.94 0 1.7.77 1.7 1.7v6.2c0 .93-.76 1.7-1.7 1.7zM686.53 661.6c-.94 0-1.7-.77-1.7-1.7v-6.2c0-.93.76-1.7 1.7-1.7s1.7.77 1.7 1.7v6.2c0 .93-.76 1.7-1.7 1.7zM692.3 661.6c-.94 0-1.7-.77-1.7-1.7v-6.2c0-.93.76-1.7 1.7-1.7s1.7.77 1.7 1.7v6.2c0 .93-.76 1.7-1.7 1.7zM698.1 661.6c-.94 0-1.7-.77-1.7-1.7v-6.2c0-.93.76-1.7 1.7-1.7s1.7.77 1.7 1.7v6.2c0 .93-.76 1.7-1.7 1.7zM680.73 695.43c-.93 0-1.7-.75-1.7-1.68v-6.2c0-.93.77-1.7 1.7-1.7.94 0 1.7.77 1.7 1.7v6.2c0 .93-.76 1.68-1.7 1.68zM686.53 695.43c-.94 0-1.7-.75-1.7-1.68v-6.2c0-.93.76-1.7 1.7-1.7s1.7.77 1.7 1.7v6.2c0 .93-.76 1.68-1.7 1.68zM692.3 695.43c-.94 0-1.7-.75-1.7-1.68v-6.2c0-.93.76-1.7 1.7-1.7s1.7.77 1.7 1.7v6.2c0 .93-.76 1.68-1.7 1.68zM698.1 695.43c-.94 0-1.7-.75-1.7-1.68v-6.2c0-.93.76-1.7 1.7-1.7s1.7.77 1.7 1.7v6.2c0 .93-.76 1.68-1.7 1.68zM709.62 666.77h-6.25c-.93 0-1.7-.75-1.7-1.7 0-.92.77-1.68 1.7-1.68h6.23c.93 0 1.7.75 1.7 1.68 0 .94-.77 1.7-1.7 1.7zM709.62 672.5h-6.25c-.93 0-1.7-.74-1.7-1.67 0-.94.77-1.7 1.7-1.7h6.23c.93 0 1.7.76 1.7 1.7 0 .93-.77 1.68-1.7 1.68zM709.62 678.28h-6.25c-.93 0-1.7-.75-1.7-1.7 0-.92.77-1.67 1.7-1.67h6.23c.93 0 1.7.76 1.7 1.7 0 .93-.77 1.68-1.7 1.68zM709.62 684.03h-6.25c-.93 0-1.7-.76-1.7-1.7 0-.92.77-1.68 1.7-1.68h6.23c.93 0 1.7.76 1.7 1.7 0 .92-.77 1.68-1.7 1.68zM675.52 666.77h-6.23c-.94 0-1.7-.75-1.7-1.7 0-.92.76-1.68 1.7-1.68h6.22c.93 0 1.7.75 1.7 1.68 0 .94-.77 1.7-1.7 1.7zM675.52 672.5h-6.23c-.94 0-1.7-.74-1.7-1.67 0-.94.76-1.7 1.7-1.7h6.22c.93 0 1.7.76 1.7 1.7 0 .93-.77 1.68-1.7 1.68zM675.52 678.28h-6.23c-.94 0-1.7-.75-1.7-1.7 0-.92.76-1.67 1.7-1.67h6.22c.93 0 1.7.76 1.7 1.7 0 .93-.77 1.68-1.7 1.68zM675.52 684.03h-6.23c-.94 0-1.7-.76-1.7-1.7 0-.92.76-1.68 1.7-1.68h6.22c.93 0 1.7.76 1.7 1.7 0 .92-.77 1.68-1.7 1.68z" fill="#fff"/><path d="M683.88 668.13h11.22v11.17h-11.22v-11.17z" fill="#fbbf93"/><path d="M695.12 680.43H683.8c-.64 0-1.14-.5-1.14-1.13v-11.27c0-.62.5-1.12 1.13-1.12h11.32c.62 0 1.12.5 1.12 1.13v11.27c0 .63-.5 1.13-1.12 1.13zm-10.1-2.26h9.05v-9h-9.1z" fill="#fff"/><g><use xlink:href="#C" transform="matrix(1,0,0,1,629.5,710) translate(13.73456790123457 17.77777777777778)"/><use xlink:href="#h" transform="matrix(1,0,0,1,629.5,710) translate(7.901234567901241 44.44444444444444)"/><use xlink:href="#D" transform="matrix(1,0,0,1,629.5,710) translate(85.06172839506172 44.44444444444444)"/></g><path d="M922.22 710h-79.86c-3.3 0-6-2.7-6-6v-28c0-3.3-2.7-6-6-6H768" stroke="#5e5e5e" stroke-width="2" fill="none"/><path d="M923.22 711h-1.03v-2h1.02" fill="#5e5e5e"/><path d="M752.74 670l14.26-4.64v9.28z" stroke="#5e5e5e" stroke-width="2" fill="#5e5e5e"/><path d="M915.5 543.98H768" stroke="#5e5e5e" stroke-width="2" fill="none"/><path d="M916.5 544.98h-1.03v-2h1.03" fill="#5e5e5e"/><path d="M752.74 543.98l14.26-4.64v9.27z" stroke="#5e5e5e" stroke-width="2" fill="#5e5e5e"/><path d="M395.9 204.33h84.56c3.3 0 6 2.7 6 6V349c0 3.3 2.68 6 6 6h67.04" stroke="#5e5e5e" stroke-width="2" fill="none"/><path d="M395.94 205.33h-1.07l.1-2h.97" fill="#5e5e5e"/><path d="M574.76 355l-14.26 4.64v-9.28z" stroke="#5e5e5e" stroke-width="2" fill="#5e5e5e"/><defs><path fill="#232f3e" d="M205 0l-28-72H64L36 0H1l101-248h38L239 0h-34zm-38-99l-47-123c-12 45-31 82-46 123h93" id="E"/><path fill="#232f3e" d="M266 0h-40l-56-210L115 0H75L2-248h35L96-30l15-64 43-154h32l59 218 59-218h35" id="F"/><path fill="#232f3e" d="M185-189c-5-48-123-54-124 2 14 75 158 14 163 119 3 78-121 87-175 55-17-10-28-26-33-46l33-7c5 56 141 63 141-1 0-78-155-14-162-118-5-82 145-84 179-34 5 7 8 16 11 25" id="G"/><g id="a"><use transform="matrix(0.05,0,0,0.05,0,0)" xlink:href="#E"/><use transform="matrix(0.05,0,0,0.05,11.35,0)" xlink:href="#F"/><use transform="matrix(0.05,0,0,0.05,28.299999999999997,0)" xlink:href="#G"/></g><path fill="#d86613" d="M30 0v-248h187v28H63v79h144v27H63v87h162V0H30" id="H"/><path fill="#d86613" d="M212-179c-10-28-35-45-73-45-59 0-87 40-87 99 0 60 29 101 89 101 43 0 62-24 78-52l27 14C228-24 195 4 139 4 59 4 22-46 18-125c-6-104 99-153 187-111 19 9 31 26 39 46" id="I"/><path fill="#d86613" d="M185-189c-5-48-123-54-124 2 14 75 158 14 163 119 3 78-121 87-175 55-17-10-28-26-33-46l33-7c5 56 141 63 141-1 0-78-155-14-162-118-5-82 145-84 179-34 5 7 8 16 11 25" id="J"/><g id="b"><use transform="matrix(0.05,0,0,0.05,0,0)" xlink:href="#H"/><use transform="matrix(0.05,0,0,0.05,12,0)" xlink:href="#I"/><use transform="matrix(0.05,0,0,0.05,24.950000000000003,0)" xlink:href="#J"/></g><path fill="#d86613" d="M63-220v92h138v28H63V0H30v-248h175v28H63" id="K"/><path fill="#d86613" d="M141-36C126-15 110 5 73 4 37 3 15-17 15-53c-1-64 63-63 125-63 3-35-9-54-41-54-24 1-41 7-42 31l-33-3c5-37 33-52 76-52 45 0 72 20 72 64v82c-1 20 7 32 28 27v20c-31 9-61-2-59-35zM48-53c0 20 12 33 32 33 41-3 63-29 60-74-43 2-92-5-92 41" id="L"/><path fill="#d86613" d="M114-163C36-179 61-72 57 0H25l-1-190h30c1 12-1 29 2 39 6-27 23-49 58-41v29" id="M"/><path fill="#d86613" d="M177-190C167-65 218 103 67 71c-23-6-38-20-44-43l32-5c15 47 100 32 89-28v-30C133-14 115 1 83 1 29 1 15-40 15-95c0-56 16-97 71-98 29-1 48 16 59 35 1-10 0-23 2-32h30zM94-22c36 0 50-32 50-73 0-42-14-75-50-75-39 0-46 34-46 75s6 73 46 73" id="N"/><path fill="#d86613" d="M59-47c-2 24 18 29 38 22v24C64 9 27 4 27-40v-127H5v-23h24l9-43h21v43h35v23H59v120" id="O"/><path fill="#d86613" d="M100-194c63 0 86 42 84 106H49c0 40 14 67 53 68 26 1 43-12 49-29l28 8c-11 28-37 45-77 45C44 4 14-33 15-96c1-61 26-98 85-98zm52 81c6-60-76-77-97-28-3 7-6 17-6 28h103" id="P"/><g id="c"><use transform="matrix(0.05,0,0,0.05,0,0)" xlink:href="#K"/><use transform="matrix(0.05,0,0,0.05,10.950000000000001,0)" xlink:href="#L"/><use transform="matrix(0.05,0,0,0.05,20.950000000000003,0)" xlink:href="#M"/><use transform="matrix(0.05,0,0,0.05,26.900000000000002,0)" xlink:href="#N"/><use transform="matrix(0.05,0,0,0.05,36.900000000000006,0)" xlink:href="#L"/><use transform="matrix(0.05,0,0,0.05,46.900000000000006,0)" xlink:href="#O"/><use transform="matrix(0.05,0,0,0.05,51.900000000000006,0)" xlink:href="#P"/></g><path fill="#333" d="M185-189c-5-48-123-54-124 2 14 75 158 14 163 119 3 78-121 87-175 55-17-10-28-26-33-46l33-7c5 56 141 63 141-1 0-78-155-14-162-118-5-82 145-84 179-34 5 7 8 16 11 25" id="Q"/><path fill="#333" d="M126-127c33 6 58 20 58 59 0 88-139 92-164 29-3-8-5-16-6-25l32-3c6 27 21 44 54 44 32 0 52-15 52-46 0-38-36-46-79-43v-28c39 1 72-4 72-42 0-27-17-43-46-43-28 0-47 15-49 41l-32-3c6-42 35-63 81-64 48-1 79 21 79 65 0 36-21 52-52 59" id="R"/><g id="d"><use transform="matrix(0.06172839506172839,0,0,0.06172839506172839,0,0)" xlink:href="#Q"/><use transform="matrix(0.06172839506172839,0,0,0.06172839506172839,14.814814814814813,0)" xlink:href="#R"/></g><path fill="#333" d="M212-179c-10-28-35-45-73-45-59 0-87 40-87 99 0 60 29 101 89 101 43 0 62-24 78-52l27 14C228-24 195 4 139 4 59 4 22-46 18-125c-6-104 99-153 187-111 19 9 31 26 39 46" id="S"/><path fill="#333" d="M24 0v-261h32V0H24" id="T"/><path fill="#333" d="M100-194c62-1 85 37 85 99 1 63-27 99-86 99S16-35 15-95c0-66 28-99 85-99zM99-20c44 1 53-31 53-75 0-43-8-75-51-75s-53 32-53 75 10 74 51 75" id="U"/><path fill="#333" d="M84 4C-5 8 30-112 23-190h32v120c0 31 7 50 39 49 72-2 45-101 50-169h31l1 190h-30c-1-10 1-25-2-33-11 22-28 36-60 37" id="V"/><path fill="#333" d="M85-194c31 0 48 13 60 33l-1-100h32l1 261h-30c-2-10 0-23-3-31C134-8 116 4 85 4 32 4 16-35 15-94c0-66 23-100 70-100zm9 24c-40 0-46 34-46 75 0 40 6 74 45 74 42 0 51-32 51-76 0-42-9-74-50-73" id="W"/><path fill="#333" d="M266 0h-40l-56-210L115 0H75L2-248h35L96-30l15-64 43-154h32l59 218 59-218h35" id="X"/><path fill="#333" d="M141-36C126-15 110 5 73 4 37 3 15-17 15-53c-1-64 63-63 125-63 3-35-9-54-41-54-24 1-41 7-42 31l-33-3c5-37 33-52 76-52 45 0 72 20 72 64v82c-1 20 7 32 28 27v20c-31 9-61-2-59-35zM48-53c0 20 12 33 32 33 41-3 63-29 60-74-43 2-92-5-92 41" id="Y"/><path fill="#333" d="M59-47c-2 24 18 29 38 22v24C64 9 27 4 27-40v-127H5v-23h24l9-43h21v43h35v23H59v120" id="Z"/><path fill="#333" d="M96-169c-40 0-48 33-48 73s9 75 48 75c24 0 41-14 43-38l32 2c-6 37-31 61-74 61-59 0-76-41-82-99-10-93 101-131 147-64 4 7 5 14 7 22l-32 3c-4-21-16-35-41-35" id="aa"/><path fill="#333" d="M106-169C34-169 62-67 57 0H25v-261h32l-1 103c12-21 28-36 61-36 89 0 53 116 60 194h-32v-121c2-32-8-49-39-48" id="ab"/><g id="e"><use transform="matrix(0.06172839506172839,0,0,0.06172839506172839,0,0)" xlink:href="#S"/><use transform="matrix(0.06172839506172839,0,0,0.06172839506172839,15.987654320987653,0)" xlink:href="#T"/><use transform="matrix(0.06172839506172839,0,0,0.06172839506172839,20.864197530864196,0)" xlink:href="#U"/><use transform="matrix(0.06172839506172839,0,0,0.06172839506172839,33.20987654320987,0)" xlink:href="#V"/><use transform="matrix(0.06172839506172839,0,0,0.06172839506172839,45.55555555555555,0)" xlink:href="#W"/><use transform="matrix(0.06172839506172839,0,0,0.06172839506172839,57.90123456790123,0)" xlink:href="#X"/><use transform="matrix(0.06172839506172839,0,0,0.06172839506172839,78.02469135802468,0)" xlink:href="#Y"/><use transform="matrix(0.06172839506172839,0,0,0.06172839506172839,90.37037037037037,0)" xlink:href="#Z"/><use transform="matrix(0.06172839506172839,0,0,0.06172839506172839,96.5432098765432,0)" xlink:href="#aa"/><use transform="matrix(0.06172839506172839,0,0,0.06172839506172839,107.65432098765432,0)" xlink:href="#ab"/></g><path fill="#333" d="M30 0v-248h187v28H63v79h144v27H63v87h162V0H30" id="ac"/><path fill="#333" d="M108 0H70L1-190h34L89-25l56-165h34" id="ad"/><path fill="#333" d="M100-194c63 0 86 42 84 106H49c0 40 14 67 53 68 26 1 43-12 49-29l28 8c-11 28-37 45-77 45C44 4 14-33 15-96c1-61 26-98 85-98zm52 81c6-60-76-77-97-28-3 7-6 17-6 28h103" id="ae"/><path fill="#333" d="M117-194c89-4 53 116 60 194h-32v-121c0-31-8-49-39-48C34-167 62-67 57 0H25l-1-190h30c1 10-1 24 2 32 11-22 29-35 61-36" id="af"/><g id="f"><use transform="matrix(0.06172839506172839,0,0,0.06172839506172839,0,0)" xlink:href="#ac"/><use transform="matrix(0.06172839506172839,0,0,0.06172839506172839,14.814814814814813,0)" xlink:href="#ad"/><use transform="matrix(0.06172839506172839,0,0,0.06172839506172839,25.925925925925924,0)" xlink:href="#ae"/><use transform="matrix(0.06172839506172839,0,0,0.06172839506172839,38.2716049382716,0)" xlink:href="#af"/><use transform="matrix(0.06172839506172839,0,0,0.06172839506172839,50.61728395061728,0)" xlink:href="#Z"/></g><path fill="#333" d="M140-251c81 0 123 46 123 126C263-53 228-8 163 1c7 30 30 48 69 40v23c-55 16-95-15-103-61C56-3 17-48 17-125c0-80 42-126 123-126zm0 227c63 0 89-41 89-101s-29-99-89-99c-61 0-89 39-89 99S79-25 140-24" id="ag"/><g id="g"><use transform="matrix(0.06172839506172839,0,0,0.06172839506172839,0,0)" xlink:href="#ag"/><use transform="matrix(0.06172839506172839,0,0,0.06172839506172839,17.28395061728395,0)" xlink:href="#V"/><use transform="matrix(0.06172839506172839,0,0,0.06172839506172839,29.629629629629626,0)" xlink:href="#ae"/><use transform="matrix(0.06172839506172839,0,0,0.06172839506172839,41.9753086419753,0)" xlink:href="#V"/><use transform="matrix(0.06172839506172839,0,0,0.06172839506172839,54.32098765432098,0)" xlink:href="#ae"/></g><path fill="#333" d="M114-163C36-179 61-72 57 0H25l-1-190h30c1 12-1 29 2 39 6-27 23-49 58-41v29" id="ah"/><path fill="#333" d="M143 0L79-87 56-68V0H24v-261h32v163l83-92h37l-77 82L181 0h-38" id="ai"/><g id="h"><use transform="matrix(0.06172839506172839,0,0,0.06172839506172839,0,0)" xlink:href="#X"/><use transform="matrix(0.06172839506172839,0,0,0.06172839506172839,20.493827160493826,0)" xlink:href="#U"/><use transform="matrix(0.06172839506172839,0,0,0.06172839506172839,32.839506172839506,0)" xlink:href="#ah"/><use transform="matrix(0.06172839506172839,0,0,0.06172839506172839,40.18518518518518,0)" xlink:href="#ai"/><use transform="matrix(0.06172839506172839,0,0,0.06172839506172839,51.29629629629629,0)" xlink:href="#ae"/><use transform="matrix(0.06172839506172839,0,0,0.06172839506172839,63.641975308641975,0)" xlink:href="#ah"/></g><path fill="#333" d="M87 75C49 33 22-17 22-94c0-76 28-126 65-167h31c-38 41-64 92-64 168S80 34 118 75H87" id="aj"/><path fill="#333" d="M33-261c38 41 65 92 65 168S71 34 33 75H2C39 34 66-17 66-93S39-220 2-261h31" id="ak"/><g id="i"><use transform="matrix(0.06172839506172839,0,0,0.06172839506172839,0,0)" xlink:href="#aj"/><use transform="matrix(0.06172839506172839,0,0,0.06172839506172839,7.345679012345679,0)" xlink:href="#R"/><use transform="matrix(0.06172839506172839,0,0,0.06172839506172839,19.691358024691358,0)" xlink:href="#ak"/></g><path fill="#333" d="M205 0l-28-72H64L36 0H1l101-248h38L239 0h-34zm-38-99l-47-123c-12 45-31 82-46 123h93" id="al"/><path fill="#333" d="M210-169c-67 3-38 105-44 169h-31v-121c0-29-5-50-35-48C34-165 62-65 56 0H25l-1-190h30c1 10-1 24 2 32 10-44 99-50 107 0 11-21 27-35 58-36 85-2 47 119 55 194h-31v-121c0-29-5-49-35-48" id="am"/><path fill="#333" d="M9 0v-24l116-142H16v-24h144v24L44-24h123V0H9" id="an"/><g id="j"><use transform="matrix(0.06172839506172839,0,0,0.06172839506172839,0,0)" xlink:href="#al"/><use transform="matrix(0.06172839506172839,0,0,0.06172839506172839,14.814814814814813,0)" xlink:href="#am"/><use transform="matrix(0.06172839506172839,0,0,0.06172839506172839,33.2716049382716,0)" xlink:href="#Y"/><use transform="matrix(0.06172839506172839,0,0,0.06172839506172839,45.61728395061728,0)" xlink:href="#an"/><use transform="matrix(0.06172839506172839,0,0,0.06172839506172839,56.72839506172839,0)" xlink:href="#U"/><use transform="matrix(0.06172839506172839,0,0,0.06172839506172839,69.07407407407408,0)" xlink:href="#af"/></g><g id="k"><use transform="matrix(0.06172839506172839,0,0,0.06172839506172839,0,0)" xlink:href="#Q"/><use transform="matrix(0.06172839506172839,0,0,0.06172839506172839,14.814814814814813,0)" xlink:href="#ac"/><use transform="matrix(0.06172839506172839,0,0,0.06172839506172839,29.629629629629626,0)" xlink:href="#Q"/></g><g id="l"><use transform="matrix(0.06172839506172839,0,0,0.06172839506172839,0,0)" xlink:href="#Q"/><use transform="matrix(0.06172839506172839,0,0,0.06172839506172839,14.814814814814813,0)" xlink:href="#ag"/><use transform="matrix(0.06172839506172839,0,0,0.06172839506172839,32.09876543209876,0)" xlink:href="#Q"/></g><path fill="#333" d="M240 0l2-218c-23 76-54 145-80 218h-23L58-218 59 0H30v-248h44l77 211c21-75 51-140 76-211h43V0h-30" id="ao"/><path fill="#333" d="M179-190L93 31C79 59 56 82 12 73V49c39 6 53-20 64-50L1-190h34L92-34l54-156h33" id="ap"/><path fill="#333" d="M30 0v-248h33v221h125V0H30" id="aq"/><g id="m"><use transform="matrix(0.06172839506172839,0,0,0.06172839506172839,0,0)" xlink:href="#ao"/><use transform="matrix(0.06172839506172839,0,0,0.06172839506172839,18.456790123456788,0)" xlink:href="#ap"/><use transform="matrix(0.06172839506172839,0,0,0.06172839506172839,29.5679012345679,0)" xlink:href="#Q"/><use transform="matrix(0.06172839506172839,0,0,0.06172839506172839,44.38271604938271,0)" xlink:href="#ag"/><use transform="matrix(0.06172839506172839,0,0,0.06172839506172839,61.66666666666666,0)" xlink:href="#aq"/></g><path fill="#333" d="M30-248c118-7 216 8 213 122C240-48 200 0 122 0H30v-248zM63-27c89 8 146-16 146-99s-60-101-146-95v194" id="ar"/><path fill="#333" d="M160-131c35 5 61 23 61 61C221 17 115-2 30 0v-248c76 3 177-17 177 60 0 33-19 50-47 57zm-97-11c50-1 110 9 110-42 0-47-63-36-110-37v79zm0 115c55-2 124 14 124-45 0-56-70-42-124-44v89" id="as"/><g id="n"><use transform="matrix(0.06172839506172839,0,0,0.06172839506172839,0,0)" xlink:href="#ar"/><use transform="matrix(0.06172839506172839,0,0,0.06172839506172839,15.987654320987653,0)" xlink:href="#as"/></g><path fill="#333" d="M24-231v-30h32v30H24zM24 0v-190h32V0H24" id="at"/><path fill="#333" d="M135-143c-3-34-86-38-87 0 15 53 115 12 119 90S17 21 10-45l28-5c4 36 97 45 98 0-10-56-113-15-118-90-4-57 82-63 122-42 12 7 21 19 24 35" id="au"/><g id="o"><use transform="matrix(0.06172839506172839,0,0,0.06172839506172839,0,0)" xlink:href="#at"/><use transform="matrix(0.06172839506172839,0,0,0.06172839506172839,4.876543209876543,0)" xlink:href="#af"/><use transform="matrix(0.06172839506172839,0,0,0.06172839506172839,17.22222222222222,0)" xlink:href="#au"/><use transform="matrix(0.06172839506172839,0,0,0.06172839506172839,28.333333333333332,0)" xlink:href="#Z"/><use transform="matrix(0.06172839506172839,0,0,0.06172839506172839,34.50617283950617,0)" xlink:href="#Y"/><use transform="matrix(0.06172839506172839,0,0,0.06172839506172839,46.85185185185185,0)" xlink:href="#af"/><use transform="matrix(0.06172839506172839,0,0,0.06172839506172839,59.197530864197525,0)" xlink:href="#aa"/><use transform="matrix(0.06172839506172839,0,0,0.06172839506172839,70.30864197530863,0)" xlink:href="#ae"/></g><path fill="#333" d="M233-177c-1 41-23 64-60 70L243 0h-38l-65-103H63V0H30v-248c88 3 205-21 203 71zM63-129c60-2 137 13 137-47 0-61-80-42-137-45v92" id="av"/><g id="p"><use transform="matrix(0.06172839506172839,0,0,0.06172839506172839,0,0)" xlink:href="#av"/><use transform="matrix(0.06172839506172839,0,0,0.06172839506172839,15.987654320987653,0)" xlink:href="#ae"/><use transform="matrix(0.06172839506172839,0,0,0.06172839506172839,28.333333333333332,0)" xlink:href="#W"/><use transform="matrix(0.06172839506172839,0,0,0.06172839506172839,40.67901234567901,0)" xlink:href="#at"/><use transform="matrix(0.06172839506172839,0,0,0.06172839506172839,45.55555555555556,0)" xlink:href="#au"/></g><path fill="#333" d="M177-190C167-65 218 103 67 71c-23-6-38-20-44-43l32-5c15 47 100 32 89-28v-30C133-14 115 1 83 1 29 1 15-40 15-95c0-56 16-97 71-98 29-1 48 16 59 35 1-10 0-23 2-32h30zM94-22c36 0 50-32 50-73 0-42-14-75-50-75-39 0-46 34-46 75s6 73 46 73" id="aw"/><g id="q"><use transform="matrix(0.06172839506172839,0,0,0.06172839506172839,0,0)" xlink:href="#aq"/><use transform="matrix(0.06172839506172839,0,0,0.06172839506172839,12.345679012345679,0)" xlink:href="#U"/><use transform="matrix(0.06172839506172839,0,0,0.06172839506172839,24.691358024691358,0)" xlink:href="#aw"/><use transform="matrix(0.06172839506172839,0,0,0.06172839506172839,37.03703703703704,0)" xlink:href="#au"/></g><path fill="#d86613" d="M205 0l-28-72H64L36 0H1l101-248h38L239 0h-34zm-38-99l-47-123c-12 45-31 82-46 123h93" id="ax"/><path fill="#d86613" d="M84 4C-5 8 30-112 23-190h32v120c0 31 7 50 39 49 72-2 45-101 50-169h31l1 190h-30c-1-10 1-25-2-33-11 22-28 36-60 37" id="ay"/><path fill="#d86613" d="M100-194c62-1 85 37 85 99 1 63-27 99-86 99S16-35 15-95c0-66 28-99 85-99zM99-20c44 1 53-31 53-75 0-43-8-75-51-75s-53 32-53 75 10 74 51 75" id="az"/><g id="r"><use transform="matrix(0.05,0,0,0.05,0,0)" xlink:href="#ax"/><use transform="matrix(0.05,0,0,0.05,12,0)" xlink:href="#ay"/><use transform="matrix(0.05,0,0,0.05,22,0)" xlink:href="#O"/><use transform="matrix(0.05,0,0,0.05,27,0)" xlink:href="#az"/></g><path fill="#d86613" d="M96-169c-40 0-48 33-48 73s9 75 48 75c24 0 41-14 43-38l32 2c-6 37-31 61-74 61-59 0-76-41-82-99-10-93 101-131 147-64 4 7 5 14 7 22l-32 3c-4-21-16-35-41-35" id="aA"/><path fill="#d86613" d="M24 0v-261h32V0H24" id="aB"/><path fill="#d86613" d="M24-231v-30h32v30H24zM24 0v-190h32V0H24" id="aC"/><path fill="#d86613" d="M117-194c89-4 53 116 60 194h-32v-121c0-31-8-49-39-48C34-167 62-67 57 0H25l-1-190h30c1 10-1 24 2 32 11-22 29-35 61-36" id="aD"/><g id="s"><use transform="matrix(0.05,0,0,0.05,0,0)" xlink:href="#J"/><use transform="matrix(0.05,0,0,0.05,12,0)" xlink:href="#aA"/><use transform="matrix(0.05,0,0,0.05,21,0)" xlink:href="#L"/><use transform="matrix(0.05,0,0,0.05,31,0)" xlink:href="#aB"/><use transform="matrix(0.05,0,0,0.05,34.95,0)" xlink:href="#aC"/><use transform="matrix(0.05,0,0,0.05,38.900000000000006,0)" xlink:href="#aD"/><use transform="matrix(0.05,0,0,0.05,48.900000000000006,0)" xlink:href="#N"/></g><path fill="#333" d="M115-194c55 1 70 41 70 98S169 2 115 4C84 4 66-9 55-30l1 105H24l-1-265h31l2 30c10-21 28-34 59-34zm-8 174c40 0 45-34 45-75s-6-73-45-74c-42 0-51 32-51 76 0 43 10 73 51 73" id="aE"/><g id="t"><use transform="matrix(0.06172839506172839,0,0,0.06172839506172839,0,0)" xlink:href="#al"/><use transform="matrix(0.06172839506172839,0,0,0.06172839506172839,14.814814814814813,0)" xlink:href="#aE"/><use transform="matrix(0.06172839506172839,0,0,0.06172839506172839,27.160493827160494,0)" xlink:href="#aE"/><use transform="matrix(0.06172839506172839,0,0,0.06172839506172839,39.50617283950617,0)" xlink:href="#T"/><use transform="matrix(0.06172839506172839,0,0,0.06172839506172839,44.382716049382715,0)" xlink:href="#at"/><use transform="matrix(0.06172839506172839,0,0,0.06172839506172839,49.25925925925926,0)" xlink:href="#aa"/><use transform="matrix(0.06172839506172839,0,0,0.06172839506172839,60.37037037037037,0)" xlink:href="#Y"/><use transform="matrix(0.06172839506172839,0,0,0.06172839506172839,72.71604938271605,0)" xlink:href="#Z"/><use transform="matrix(0.06172839506172839,0,0,0.06172839506172839,78.88888888888889,0)" xlink:href="#at"/><use transform="matrix(0.06172839506172839,0,0,0.06172839506172839,83.76543209876543,0)" xlink:href="#U"/><use transform="matrix(0.06172839506172839,0,0,0.06172839506172839,96.11111111111111,0)" xlink:href="#af"/></g><path fill="#333" d="M54-142c48-35 137-8 131 61C196 18 31 33 14-55l32-4c7 23 22 37 52 37 35-1 51-22 54-58 4-55-73-65-99-34H22l8-134h141v27H59" id="aF"/><g id="u"><use transform="matrix(0.06172839506172839,0,0,0.06172839506172839,0,0)" xlink:href="#aj"/><use transform="matrix(0.06172839506172839,0,0,0.06172839506172839,7.345679012345679,0)" xlink:href="#aF"/><use transform="matrix(0.06172839506172839,0,0,0.06172839506172839,19.691358024691358,0)" xlink:href="#ak"/></g><path fill="#333" d="M101-234c-31-9-42 10-38 44h38v23H63V0H32v-167H5v-23h27c-7-52 17-82 69-68v24" id="aG"/><g id="v"><use transform="matrix(0.06172839506172839,0,0,0.06172839506172839,0,0)" xlink:href="#S"/><use transform="matrix(0.06172839506172839,0,0,0.06172839506172839,15.987654320987653,0)" xlink:href="#ae"/><use transform="matrix(0.06172839506172839,0,0,0.06172839506172839,28.333333333333332,0)" xlink:href="#ah"/><use transform="matrix(0.06172839506172839,0,0,0.06172839506172839,35.67901234567901,0)" xlink:href="#Z"/><use transform="matrix(0.06172839506172839,0,0,0.06172839506172839,41.851851851851855,0)" xlink:href="#at"/><use transform="matrix(0.06172839506172839,0,0,0.06172839506172839,46.7283950617284,0)" xlink:href="#aG"/><use transform="matrix(0.06172839506172839,0,0,0.06172839506172839,52.90123456790124,0)" xlink:href="#at"/><use transform="matrix(0.06172839506172839,0,0,0.06172839506172839,57.777777777777786,0)" xlink:href="#aa"/><use transform="matrix(0.06172839506172839,0,0,0.06172839506172839,68.8888888888889,0)" xlink:href="#Y"/><use transform="matrix(0.06172839506172839,0,0,0.06172839506172839,81.23456790123458,0)" xlink:href="#Z"/><use transform="matrix(0.06172839506172839,0,0,0.06172839506172839,87.40740740740742,0)" xlink:href="#ae"/></g><g id="w"><use transform="matrix(0.06172839506172839,0,0,0.06172839506172839,0,0)" xlink:href="#ao"/><use transform="matrix(0.06172839506172839,0,0,0.06172839506172839,18.456790123456788,0)" xlink:href="#Y"/><use transform="matrix(0.06172839506172839,0,0,0.06172839506172839,30.80246913580247,0)" xlink:href="#af"/><use transform="matrix(0.06172839506172839,0,0,0.06172839506172839,43.148148148148145,0)" xlink:href="#Y"/><use transform="matrix(0.06172839506172839,0,0,0.06172839506172839,55.49382716049382,0)" xlink:href="#aw"/><use transform="matrix(0.06172839506172839,0,0,0.06172839506172839,67.8395061728395,0)" xlink:href="#ae"/><use transform="matrix(0.06172839506172839,0,0,0.06172839506172839,80.18518518518519,0)" xlink:href="#ah"/></g><g id="x"><use transform="matrix(0.06172839506172839,0,0,0.06172839506172839,0,0)" xlink:href="#aq"/><use transform="matrix(0.06172839506172839,0,0,0.06172839506172839,12.345679012345679,0)" xlink:href="#U"/><use transform="matrix(0.06172839506172839,0,0,0.06172839506172839,24.691358024691358,0)" xlink:href="#Y"/><use transform="matrix(0.06172839506172839,0,0,0.06172839506172839,37.03703703703704,0)" xlink:href="#W"/></g><g id="y"><use transform="matrix(0.06172839506172839,0,0,0.06172839506172839,0,0)" xlink:href="#as"/><use transform="matrix(0.06172839506172839,0,0,0.06172839506172839,14.814814814814813,0)" xlink:href="#Y"/><use transform="matrix(0.06172839506172839,0,0,0.06172839506172839,27.160493827160494,0)" xlink:href="#T"/><use transform="matrix(0.06172839506172839,0,0,0.06172839506172839,32.03703703703704,0)" xlink:href="#Y"/><use transform="matrix(0.06172839506172839,0,0,0.06172839506172839,44.382716049382715,0)" xlink:href="#af"/><use transform="matrix(0.06172839506172839,0,0,0.06172839506172839,56.72839506172839,0)" xlink:href="#aa"/><use transform="matrix(0.06172839506172839,0,0,0.06172839506172839,67.8395061728395,0)" xlink:href="#ae"/><use transform="matrix(0.06172839506172839,0,0,0.06172839506172839,80.18518518518519,0)" xlink:href="#ah"/></g><g id="z"><use transform="matrix(0.06172839506172839,0,0,0.06172839506172839,0,0)" xlink:href="#av"/><use transform="matrix(0.06172839506172839,0,0,0.06172839506172839,15.987654320987653,0)" xlink:href="#U"/><use transform="matrix(0.06172839506172839,0,0,0.06172839506172839,28.333333333333332,0)" xlink:href="#V"/><use transform="matrix(0.06172839506172839,0,0,0.06172839506172839,40.67901234567901,0)" xlink:href="#Z"/><use transform="matrix(0.06172839506172839,0,0,0.06172839506172839,46.851851851851855,0)" xlink:href="#ae"/><use transform="matrix(0.06172839506172839,0,0,0.06172839506172839,59.19753086419753,0)" xlink:href="#aF"/><use transform="matrix(0.06172839506172839,0,0,0.06172839506172839,71.54320987654322,0)" xlink:href="#R"/></g><path fill="#333" d="M30-248c87 1 191-15 191 75 0 78-77 80-158 76V0H30v-248zm33 125c57 0 124 11 124-50 0-59-68-47-124-48v98" id="aH"/><g id="A"><use transform="matrix(0.06172839506172839,0,0,0.06172839506172839,0,0)" xlink:href="#aH"/><use transform="matrix(0.06172839506172839,0,0,0.06172839506172839,14.814814814814813,0)" xlink:href="#Y"/><use transform="matrix(0.06172839506172839,0,0,0.06172839506172839,27.160493827160494,0)" xlink:href="#ah"/><use transform="matrix(0.06172839506172839,0,0,0.06172839506172839,34.50617283950617,0)" xlink:href="#Y"/><use transform="matrix(0.06172839506172839,0,0,0.06172839506172839,46.85185185185185,0)" xlink:href="#am"/><use transform="matrix(0.06172839506172839,0,0,0.06172839506172839,65.30864197530863,0)" xlink:href="#ae"/><use transform="matrix(0.06172839506172839,0,0,0.06172839506172839,77.65432098765432,0)" xlink:href="#Z"/><use transform="matrix(0.06172839506172839,0,0,0.06172839506172839,83.82716049382715,0)" xlink:href="#ae"/><use transform="matrix(0.06172839506172839,0,0,0.06172839506172839,96.17283950617283,0)" xlink:href="#ah"/></g><g id="B"><use transform="matrix(0.06172839506172839,0,0,0.06172839506172839,0,0)" xlink:href="#Q"/><use transform="matrix(0.06172839506172839,0,0,0.06172839506172839,14.814814814814813,0)" xlink:href="#Z"/><use transform="matrix(0.06172839506172839,0,0,0.06172839506172839,20.98765432098765,0)" xlink:href="#U"/><use transform="matrix(0.06172839506172839,0,0,0.06172839506172839,33.33333333333333,0)" xlink:href="#ah"/><use transform="matrix(0.06172839506172839,0,0,0.06172839506172839,40.679012345679006,0)" xlink:href="#ae"/></g><g id="C"><use transform="matrix(0.06172839506172839,0,0,0.06172839506172839,0,0)" xlink:href="#Q"/><use transform="matrix(0.06172839506172839,0,0,0.06172839506172839,14.814814814814813,0)" xlink:href="#aa"/><use transform="matrix(0.06172839506172839,0,0,0.06172839506172839,25.925925925925924,0)" xlink:href="#ab"/><use transform="matrix(0.06172839506172839,0,0,0.06172839506172839,38.2716049382716,0)" xlink:href="#ae"/><use transform="matrix(0.06172839506172839,0,0,0.06172839506172839,50.61728395061728,0)" xlink:href="#W"/><use transform="matrix(0.06172839506172839,0,0,0.06172839506172839,62.962962962962955,0)" xlink:href="#V"/><use transform="matrix(0.06172839506172839,0,0,0.06172839506172839,75.30864197530863,0)" xlink:href="#T"/><use transform="matrix(0.06172839506172839,0,0,0.06172839506172839,80.18518518518518,0)" xlink:href="#ae"/></g><path fill="#333" d="M27 0v-27h64v-190l-56 39v-29l58-41h29v221h61V0H27" id="aI"/><g id="D"><use transform="matrix(0.06172839506172839,0,0,0.06172839506172839,0,0)" xlink:href="#aj"/><use transform="matrix(0.06172839506172839,0,0,0.06172839506172839,7.345679012345679,0)" xlink:href="#aI"/><use transform="matrix(0.06172839506172839,0,0,0.06172839506172839,19.691358024691358,0)" xlink:href="#ak"/></g></defs></g></svg>