<svg width="17" height="20" viewBox="0 0 17 20" fill="none" xmlns="http://www.w3.org/2000/svg">
<path d="M2 8C2 7.44772 1.55228 7 1 7C0.447715 7 0 7.44772 0 8H2ZM12 20C12.5523 20 13 19.5523 13 19C13 18.4477 12.5523 18 12 18V20ZM0 8V18H2V8H0ZM2 20H12V18H2V20ZM0 18C0 19.1046 0.895431 20 2 20V18H0Z" fill="black"/>
<path d="M4 15V2C4 1.44772 4.44772 1 5 1H15C15.5523 1 16 1.44772 16 2V15C16 15.5523 15.5523 16 15 16H5C4.44772 16 4 15.5523 4 15Z" stroke="black" stroke-width="2" stroke-linejoin="round"/>
</svg>
