<svg width="22" height="22" viewBox="0 0 22 22" fill="none" xmlns="http://www.w3.org/2000/svg">
<mask id="path-1-outside-1_455:528" maskUnits="userSpaceOnUse" x="0" y="0" width="22" height="22" fill="black">
<rect fill="white" width="22" height="22"/>
<path d="M9.3159 18.8998C8.92193 19.0275 8.53948 19.1521 8.15702 19.2756C8.11465 19.2892 8.07174 19.3007 8.02989 19.3143C7.89961 19.3557 7.78713 19.3269 7.69243 19.2301C7.60453 19.14 7.5182 19.0479 7.42821 18.9537C7.08081 19.6017 6.24736 19.6613 5.82148 19.129C5.81573 19.1322 5.80683 19.1338 5.80422 19.1385C5.52431 19.7273 5.05082 20.1089 4.47112 20.3706C3.5775 20.7741 2.67708 20.7626 1.77771 20.3889C1.70342 20.358 1.62441 20.2837 1.59459 20.2104C1.11116 19.0202 1.23673 17.8985 2.00007 16.8596C2.20307 16.5832 2.46937 16.3739 2.77387 16.2158C2.80056 16.2017 2.82776 16.1875 2.86596 16.1677C2.61744 15.9368 2.49082 15.661 2.52954 15.3245C2.56826 14.99 2.75242 14.7524 3.05535 14.5833C2.96589 14.497 2.88427 14.4153 2.79951 14.3373C2.67708 14.2248 2.64883 14.0924 2.70063 13.9369C2.82881 13.5517 2.95542 13.166 3.08203 12.7802C3.09145 12.7519 3.0993 12.7226 3.11029 12.6844C2.8398 12.663 2.5782 12.6426 2.31608 12.6221C1.97234 12.5954 1.62808 12.5708 1.28434 12.541C1.06617 12.5222 0.947923 12.3243 1.02222 12.1055C1.23149 11.4905 1.52501 10.9179 1.90328 10.3893C2.66819 9.32158 3.66697 8.52915 4.82427 7.93038C5.1994 7.7362 5.59494 7.58232 5.98001 7.40698C6.03024 7.38395 6.08203 7.35046 6.11656 7.30806C7.82218 5.22754 9.92176 3.67148 12.3865 2.60688C13.7767 2.00654 15.2212 1.58102 16.7128 1.31775C18.0083 1.08902 19.3121 0.969162 20.6284 1.00685C20.8748 1.01417 20.9852 1.11833 20.9947 1.36171C21.0213 2.05626 20.9884 2.74925 20.9298 3.44118C20.845 4.44349 20.6865 5.43429 20.4526 6.41252C19.7819 9.21847 18.578 11.7591 16.683 13.9526C16.0782 14.6529 15.4143 15.2925 14.7006 15.8814C14.6535 15.9201 14.6127 15.9771 14.5908 16.0342C14.1057 17.2924 13.4324 18.4314 12.4681 19.3845C11.7378 20.1062 10.8918 20.6448 9.91705 20.9761C9.65859 21.0641 9.47966 20.9458 9.45769 20.672C9.41269 20.1031 9.36822 19.5342 9.32323 18.9652C9.32218 18.9453 9.31904 18.9249 9.3159 18.8998ZM20.3653 1.63545C20.36 1.63283 20.3543 1.62812 20.348 1.6276C20.3103 1.62603 20.2726 1.62446 20.2355 1.62446C19.0536 1.62079 17.8827 1.73751 16.7207 1.95158C15.2955 2.21433 13.9158 2.62677 12.588 3.20827C10.2969 4.21162 8.32863 5.65098 6.72295 7.57499C5.15546 9.454 4.08814 11.5989 3.36351 13.9249C3.34416 13.9866 3.36456 14.0186 3.4038 14.0573C3.69313 14.3431 3.98141 14.6299 4.26916 14.9178C5.48925 16.1389 6.70934 17.3605 7.92682 18.5837C7.98803 18.6449 8.03774 18.6617 8.12197 18.635C9.3588 18.245 10.5527 17.7525 11.6928 17.1328C13.5412 16.1273 15.1605 14.8398 16.492 13.2031C18.5796 10.6369 19.7233 7.67025 20.1853 4.42151C20.2758 3.78662 20.3145 3.14389 20.3616 2.50325C20.3825 2.21642 20.3653 1.92541 20.3653 1.63545ZM3.11447 20.0413C3.5932 20.0398 4.03896 19.9168 4.45281 19.6776C4.83683 19.4557 5.13871 19.1615 5.28782 18.7313C5.30823 18.6726 5.30509 18.6339 5.25852 18.5873C4.63802 17.9702 4.0196 17.3511 3.40275 16.7308C3.35357 16.6816 3.31119 16.6753 3.24893 16.6979C2.9821 16.7931 2.75033 16.9444 2.57244 17.1621C1.92525 17.9524 1.79131 18.837 2.11308 19.798C2.12459 19.8325 2.16592 19.8686 2.2015 19.8812C2.49658 19.9853 2.80108 20.0403 3.11447 20.0413ZM1.75521 11.9443C1.8023 11.9506 1.83578 11.9569 1.86979 11.959C2.33962 11.9951 2.80997 12.0281 3.27928 12.0684C3.3609 12.0752 3.36822 12.0255 3.3881 11.9768C3.82759 10.8923 4.35549 9.85283 4.98908 8.86832C5.08639 8.71758 5.1858 8.56788 5.28364 8.41819C4.46798 8.80812 3.73132 9.30588 3.09616 9.94757C2.52588 10.5238 2.07279 11.1802 1.75521 11.9443ZM10.0552 20.2554C11.7121 19.5446 12.7988 18.2932 13.5836 16.7371C13.5637 16.7361 13.5496 16.7423 13.537 16.7507C12.4279 17.5091 11.2439 18.1257 9.99972 18.6282C9.93536 18.6543 9.93379 18.6904 9.93798 18.7454C9.95891 19.0008 9.97774 19.2562 9.99762 19.5117C10.0159 19.7535 10.0348 19.9948 10.0552 20.2554ZM3.51681 15.1282C3.3227 15.1261 3.20028 15.2177 3.16418 15.3506C3.12651 15.4893 3.18197 15.5935 3.27876 15.6898C4.24353 16.6528 5.20725 17.618 6.17098 18.5821C6.23376 18.6449 6.2887 18.7213 6.36247 18.7663C6.43676 18.8113 6.52989 18.8469 6.61465 18.8464C6.73603 18.8459 6.82131 18.7642 6.86055 18.6465C6.90293 18.5198 6.86787 18.4109 6.77579 18.3188C6.4985 18.0404 6.22016 17.7625 5.94234 17.4845C5.20045 16.7423 4.46013 15.9996 3.71562 15.2606C3.64918 15.1947 3.5571 15.1544 3.51681 15.1282Z"/>
</mask>
<path d="M9.3159 18.8998C8.92193 19.0275 8.53948 19.1521 8.15702 19.2756C8.11465 19.2892 8.07174 19.3007 8.02989 19.3143C7.89961 19.3557 7.78713 19.3269 7.69243 19.2301C7.60453 19.14 7.5182 19.0479 7.42821 18.9537C7.08081 19.6017 6.24736 19.6613 5.82148 19.129C5.81573 19.1322 5.80683 19.1338 5.80422 19.1385C5.52431 19.7273 5.05082 20.1089 4.47112 20.3706C3.5775 20.7741 2.67708 20.7626 1.77771 20.3889C1.70342 20.358 1.62441 20.2837 1.59459 20.2104C1.11116 19.0202 1.23673 17.8985 2.00007 16.8596C2.20307 16.5832 2.46937 16.3739 2.77387 16.2158C2.80056 16.2017 2.82776 16.1875 2.86596 16.1677C2.61744 15.9368 2.49082 15.661 2.52954 15.3245C2.56826 14.99 2.75242 14.7524 3.05535 14.5833C2.96589 14.497 2.88427 14.4153 2.79951 14.3373C2.67708 14.2248 2.64883 14.0924 2.70063 13.9369C2.82881 13.5517 2.95542 13.166 3.08203 12.7802C3.09145 12.7519 3.0993 12.7226 3.11029 12.6844C2.8398 12.663 2.5782 12.6426 2.31608 12.6221C1.97234 12.5954 1.62808 12.5708 1.28434 12.541C1.06617 12.5222 0.947923 12.3243 1.02222 12.1055C1.23149 11.4905 1.52501 10.9179 1.90328 10.3893C2.66819 9.32158 3.66697 8.52915 4.82427 7.93038C5.1994 7.7362 5.59494 7.58232 5.98001 7.40698C6.03024 7.38395 6.08203 7.35046 6.11656 7.30806C7.82218 5.22754 9.92176 3.67148 12.3865 2.60688C13.7767 2.00654 15.2212 1.58102 16.7128 1.31775C18.0083 1.08902 19.3121 0.969162 20.6284 1.00685C20.8748 1.01417 20.9852 1.11833 20.9947 1.36171C21.0213 2.05626 20.9884 2.74925 20.9298 3.44118C20.845 4.44349 20.6865 5.43429 20.4526 6.41252C19.7819 9.21847 18.578 11.7591 16.683 13.9526C16.0782 14.6529 15.4143 15.2925 14.7006 15.8814C14.6535 15.9201 14.6127 15.9771 14.5908 16.0342C14.1057 17.2924 13.4324 18.4314 12.4681 19.3845C11.7378 20.1062 10.8918 20.6448 9.91705 20.9761C9.65859 21.0641 9.47966 20.9458 9.45769 20.672C9.41269 20.1031 9.36822 19.5342 9.32323 18.9652C9.32218 18.9453 9.31904 18.9249 9.3159 18.8998ZM20.3653 1.63545C20.36 1.63283 20.3543 1.62812 20.348 1.6276C20.3103 1.62603 20.2726 1.62446 20.2355 1.62446C19.0536 1.62079 17.8827 1.73751 16.7207 1.95158C15.2955 2.21433 13.9158 2.62677 12.588 3.20827C10.2969 4.21162 8.32863 5.65098 6.72295 7.57499C5.15546 9.454 4.08814 11.5989 3.36351 13.9249C3.34416 13.9866 3.36456 14.0186 3.4038 14.0573C3.69313 14.3431 3.98141 14.6299 4.26916 14.9178C5.48925 16.1389 6.70934 17.3605 7.92682 18.5837C7.98803 18.6449 8.03774 18.6617 8.12197 18.635C9.3588 18.245 10.5527 17.7525 11.6928 17.1328C13.5412 16.1273 15.1605 14.8398 16.492 13.2031C18.5796 10.6369 19.7233 7.67025 20.1853 4.42151C20.2758 3.78662 20.3145 3.14389 20.3616 2.50325C20.3825 2.21642 20.3653 1.92541 20.3653 1.63545ZM3.11447 20.0413C3.5932 20.0398 4.03896 19.9168 4.45281 19.6776C4.83683 19.4557 5.13871 19.1615 5.28782 18.7313C5.30823 18.6726 5.30509 18.6339 5.25852 18.5873C4.63802 17.9702 4.0196 17.3511 3.40275 16.7308C3.35357 16.6816 3.31119 16.6753 3.24893 16.6979C2.9821 16.7931 2.75033 16.9444 2.57244 17.1621C1.92525 17.9524 1.79131 18.837 2.11308 19.798C2.12459 19.8325 2.16592 19.8686 2.2015 19.8812C2.49658 19.9853 2.80108 20.0403 3.11447 20.0413ZM1.75521 11.9443C1.8023 11.9506 1.83578 11.9569 1.86979 11.959C2.33962 11.9951 2.80997 12.0281 3.27928 12.0684C3.3609 12.0752 3.36822 12.0255 3.3881 11.9768C3.82759 10.8923 4.35549 9.85283 4.98908 8.86832C5.08639 8.71758 5.1858 8.56788 5.28364 8.41819C4.46798 8.80812 3.73132 9.30588 3.09616 9.94757C2.52588 10.5238 2.07279 11.1802 1.75521 11.9443ZM10.0552 20.2554C11.7121 19.5446 12.7988 18.2932 13.5836 16.7371C13.5637 16.7361 13.5496 16.7423 13.537 16.7507C12.4279 17.5091 11.2439 18.1257 9.99972 18.6282C9.93536 18.6543 9.93379 18.6904 9.93798 18.7454C9.95891 19.0008 9.97774 19.2562 9.99762 19.5117C10.0159 19.7535 10.0348 19.9948 10.0552 20.2554ZM3.51681 15.1282C3.3227 15.1261 3.20028 15.2177 3.16418 15.3506C3.12651 15.4893 3.18197 15.5935 3.27876 15.6898C4.24353 16.6528 5.20725 17.618 6.17098 18.5821C6.23376 18.6449 6.2887 18.7213 6.36247 18.7663C6.43676 18.8113 6.52989 18.8469 6.61465 18.8464C6.73603 18.8459 6.82131 18.7642 6.86055 18.6465C6.90293 18.5198 6.86787 18.4109 6.77579 18.3188C6.4985 18.0404 6.22016 17.7625 5.94234 17.4845C5.20045 16.7423 4.46013 15.9996 3.71562 15.2606C3.64918 15.1947 3.5571 15.1544 3.51681 15.1282Z" fill="black"/>
<path d="M9.3159 18.8998C8.92193 19.0275 8.53948 19.1521 8.15702 19.2756C8.11465 19.2892 8.07174 19.3007 8.02989 19.3143C7.89961 19.3557 7.78713 19.3269 7.69243 19.2301C7.60453 19.14 7.5182 19.0479 7.42821 18.9537C7.08081 19.6017 6.24736 19.6613 5.82148 19.129C5.81573 19.1322 5.80683 19.1338 5.80422 19.1385C5.52431 19.7273 5.05082 20.1089 4.47112 20.3706C3.5775 20.7741 2.67708 20.7626 1.77771 20.3889C1.70342 20.358 1.62441 20.2837 1.59459 20.2104C1.11116 19.0202 1.23673 17.8985 2.00007 16.8596C2.20307 16.5832 2.46937 16.3739 2.77387 16.2158C2.80056 16.2017 2.82776 16.1875 2.86596 16.1677C2.61744 15.9368 2.49082 15.661 2.52954 15.3245C2.56826 14.99 2.75242 14.7524 3.05535 14.5833C2.96589 14.497 2.88427 14.4153 2.79951 14.3373C2.67708 14.2248 2.64883 14.0924 2.70063 13.9369C2.82881 13.5517 2.95542 13.166 3.08203 12.7802C3.09145 12.7519 3.0993 12.7226 3.11029 12.6844C2.8398 12.663 2.5782 12.6426 2.31608 12.6221C1.97234 12.5954 1.62808 12.5708 1.28434 12.541C1.06617 12.5222 0.947923 12.3243 1.02222 12.1055C1.23149 11.4905 1.52501 10.9179 1.90328 10.3893C2.66819 9.32158 3.66697 8.52915 4.82427 7.93038C5.1994 7.7362 5.59494 7.58232 5.98001 7.40698C6.03024 7.38395 6.08203 7.35046 6.11656 7.30806C7.82218 5.22754 9.92176 3.67148 12.3865 2.60688C13.7767 2.00654 15.2212 1.58102 16.7128 1.31775C18.0083 1.08902 19.3121 0.969162 20.6284 1.00685C20.8748 1.01417 20.9852 1.11833 20.9947 1.36171C21.0213 2.05626 20.9884 2.74925 20.9298 3.44118C20.845 4.44349 20.6865 5.43429 20.4526 6.41252C19.7819 9.21847 18.578 11.7591 16.683 13.9526C16.0782 14.6529 15.4143 15.2925 14.7006 15.8814C14.6535 15.9201 14.6127 15.9771 14.5908 16.0342C14.1057 17.2924 13.4324 18.4314 12.4681 19.3845C11.7378 20.1062 10.8918 20.6448 9.91705 20.9761C9.65859 21.0641 9.47966 20.9458 9.45769 20.672C9.41269 20.1031 9.36822 19.5342 9.32323 18.9652C9.32218 18.9453 9.31904 18.9249 9.3159 18.8998ZM20.3653 1.63545C20.36 1.63283 20.3543 1.62812 20.348 1.6276C20.3103 1.62603 20.2726 1.62446 20.2355 1.62446C19.0536 1.62079 17.8827 1.73751 16.7207 1.95158C15.2955 2.21433 13.9158 2.62677 12.588 3.20827C10.2969 4.21162 8.32863 5.65098 6.72295 7.57499C5.15546 9.454 4.08814 11.5989 3.36351 13.9249C3.34416 13.9866 3.36456 14.0186 3.4038 14.0573C3.69313 14.3431 3.98141 14.6299 4.26916 14.9178C5.48925 16.1389 6.70934 17.3605 7.92682 18.5837C7.98803 18.6449 8.03774 18.6617 8.12197 18.635C9.3588 18.245 10.5527 17.7525 11.6928 17.1328C13.5412 16.1273 15.1605 14.8398 16.492 13.2031C18.5796 10.6369 19.7233 7.67025 20.1853 4.42151C20.2758 3.78662 20.3145 3.14389 20.3616 2.50325C20.3825 2.21642 20.3653 1.92541 20.3653 1.63545ZM3.11447 20.0413C3.5932 20.0398 4.03896 19.9168 4.45281 19.6776C4.83683 19.4557 5.13871 19.1615 5.28782 18.7313C5.30823 18.6726 5.30509 18.6339 5.25852 18.5873C4.63802 17.9702 4.0196 17.3511 3.40275 16.7308C3.35357 16.6816 3.31119 16.6753 3.24893 16.6979C2.9821 16.7931 2.75033 16.9444 2.57244 17.1621C1.92525 17.9524 1.79131 18.837 2.11308 19.798C2.12459 19.8325 2.16592 19.8686 2.2015 19.8812C2.49658 19.9853 2.80108 20.0403 3.11447 20.0413ZM1.75521 11.9443C1.8023 11.9506 1.83578 11.9569 1.86979 11.959C2.33962 11.9951 2.80997 12.0281 3.27928 12.0684C3.3609 12.0752 3.36822 12.0255 3.3881 11.9768C3.82759 10.8923 4.35549 9.85283 4.98908 8.86832C5.08639 8.71758 5.1858 8.56788 5.28364 8.41819C4.46798 8.80812 3.73132 9.30588 3.09616 9.94757C2.52588 10.5238 2.07279 11.1802 1.75521 11.9443ZM10.0552 20.2554C11.7121 19.5446 12.7988 18.2932 13.5836 16.7371C13.5637 16.7361 13.5496 16.7423 13.537 16.7507C12.4279 17.5091 11.2439 18.1257 9.99972 18.6282C9.93536 18.6543 9.93379 18.6904 9.93798 18.7454C9.95891 19.0008 9.97774 19.2562 9.99762 19.5117C10.0159 19.7535 10.0348 19.9948 10.0552 20.2554ZM3.51681 15.1282C3.3227 15.1261 3.20028 15.2177 3.16418 15.3506C3.12651 15.4893 3.18197 15.5935 3.27876 15.6898C4.24353 16.6528 5.20725 17.618 6.17098 18.5821C6.23376 18.6449 6.2887 18.7213 6.36247 18.7663C6.43676 18.8113 6.52989 18.8469 6.61465 18.8464C6.73603 18.8459 6.82131 18.7642 6.86055 18.6465C6.90293 18.5198 6.86787 18.4109 6.77579 18.3188C6.4985 18.0404 6.22016 17.7625 5.94234 17.4845C5.20045 16.7423 4.46013 15.9996 3.71562 15.2606C3.64918 15.1947 3.5571 15.1544 3.51681 15.1282Z" stroke="black" stroke-width="0.5" mask="url(#path-1-outside-1_455:528)"/>
<mask id="path-2-outside-2_455:528" maskUnits="userSpaceOnUse" x="9.75586" y="4.6333" width="7" height="7" fill="black">
<rect fill="white" x="9.75586" y="4.6333" width="7" height="7"/>
<path d="M13.5586 5.6333C15.1099 5.6333 16.3739 6.89888 16.3687 8.44605C16.3635 9.99898 15.112 11.2489 13.5623 11.2489C12.0047 11.2489 10.7548 9.99793 10.7559 8.43977C10.7564 6.88946 12.0105 5.6333 13.5586 5.6333ZM13.5602 10.6182C14.7693 10.6176 15.7362 9.65249 15.7377 8.44501C15.7393 7.24014 14.7693 6.26609 13.5649 6.264C12.3532 6.2619 11.3837 7.23229 11.3853 8.44501C11.3874 9.65668 12.35 10.6187 13.5602 10.6182Z"/>
</mask>
<path d="M13.5586 5.6333C15.1099 5.6333 16.3739 6.89888 16.3687 8.44605C16.3635 9.99898 15.112 11.2489 13.5623 11.2489C12.0047 11.2489 10.7548 9.99793 10.7559 8.43977C10.7564 6.88946 12.0105 5.6333 13.5586 5.6333ZM13.5602 10.6182C14.7693 10.6176 15.7362 9.65249 15.7377 8.44501C15.7393 7.24014 14.7693 6.26609 13.5649 6.264C12.3532 6.2619 11.3837 7.23229 11.3853 8.44501C11.3874 9.65668 12.35 10.6187 13.5602 10.6182Z" fill="black"/>
<path d="M13.5586 5.6333C15.1099 5.6333 16.3739 6.89888 16.3687 8.44605C16.3635 9.99898 15.112 11.2489 13.5623 11.2489C12.0047 11.2489 10.7548 9.99793 10.7559 8.43977C10.7564 6.88946 12.0105 5.6333 13.5586 5.6333ZM13.5602 10.6182C14.7693 10.6176 15.7362 9.65249 15.7377 8.44501C15.7393 7.24014 14.7693 6.26609 13.5649 6.264C12.3532 6.2619 11.3837 7.23229 11.3853 8.44501C11.3874 9.65668 12.35 10.6187 13.5602 10.6182Z" stroke="black" stroke-width="0.5" mask="url(#path-2-outside-2_455:528)"/>
</svg>
