<svg width="20" height="20" viewBox="0 0 20 20" fill="none" xmlns="http://www.w3.org/2000/svg">
<path d="M9.99184 0.0229495C5.09877 0.022321 0.927651 3.57093 0.144235 8.40088C-0.63918 13.2308 2.19643 17.9159 6.83884 19.4619C7.33884 19.5519 7.51784 19.2449 7.51784 18.9809C7.51784 18.7439 7.50984 18.1159 7.50684 17.2809C4.73184 17.8809 4.14584 15.943 4.14584 15.943C3.96315 15.3399 3.57041 14.8223 3.03884 14.484C2.13884 13.865 3.10784 13.879 3.10784 13.879C3.74851 13.9668 4.31239 14.3464 4.63484 14.9069C4.90777 15.4032 5.3676 15.7699 5.91214 15.9256C6.45669 16.0812 7.04085 16.013 7.53484 15.736C7.58126 15.23 7.80637 14.757 8.16984 14.4019C5.95584 14.1509 3.62784 13.295 3.62784 9.47195C3.61555 8.48315 3.98274 7.52725 4.65384 6.80095C4.35019 5.94026 4.38595 4.9962 4.75384 4.16095C4.75384 4.16095 5.59084 3.89195 7.49584 5.18195C9.12968 4.73396 10.854 4.73396 12.4878 5.18195C14.3938 3.89095 15.2298 4.16095 15.2298 4.16095C15.5994 4.99581 15.6352 5.94052 15.3298 6.80095C16.0034 7.52718 16.3703 8.48559 16.3538 9.47595C16.3538 13.309 14.0238 14.151 11.8018 14.398C12.2812 14.888 12.527 15.5603 12.4768 16.2439C12.4768 17.5779 12.4648 18.6539 12.4648 18.9809C12.4648 19.2479 12.6428 19.5579 13.1518 19.4599C17.7923 17.9113 20.6249 13.2259 19.8399 8.39727C19.0548 3.5686 14.8839 0.02183 9.99184 0.0229495Z" fill="black"/>
</svg>
