<svg width="21" height="21" viewBox="0 0 21 21" fill="none" xmlns="http://www.w3.org/2000/svg">
<path d="M12.6555 20.0471C11.495 20.0432 10.556 19.1016 10.5555 17.9411V15.8341H12.6555C13.8192 15.8341 14.7625 16.7774 14.7625 17.9411C14.7625 19.1047 13.8192 20.0481 12.6555 20.0481V20.0471ZM7.3735 20.0471C6.21296 20.0432 5.27404 19.1016 5.2735 17.9411V12.6671C5.2735 11.9155 5.67443 11.2211 6.32525 10.8454C6.97608 10.4696 7.77793 10.4696 8.42875 10.8454C9.07958 11.2211 9.4805 11.9155 9.4805 12.6671V17.9411C9.47995 19.1043 8.53677 20.0471 7.3735 20.0471ZM17.9235 14.7741H12.6555C11.4921 14.7741 10.549 13.8309 10.549 12.6676C10.549 11.5042 11.4921 10.5611 12.6555 10.5611H17.9235C19.0869 10.5611 20.03 11.5042 20.03 12.6676C20.03 13.8309 19.0869 14.7741 17.9235 14.7741ZM2.1065 14.7741C0.943112 14.7741 0 13.8309 0 12.6676C0 11.5042 0.943112 10.5611 2.1065 10.5611H4.2065V12.6671C4.2065 13.8299 3.26438 14.773 2.1015 14.7741H2.1065ZM17.9235 9.48505H15.8235V7.37905C15.8268 6.22004 16.7685 5.28285 17.9275 5.28505C19.0865 5.28726 20.0246 6.22803 20.0235 7.38705C20.0224 8.54606 19.0825 9.48505 17.9235 9.48505ZM12.6555 9.48505C11.495 9.4812 10.556 8.5396 10.5555 7.37905V2.10505C10.5555 1.35355 10.9564 0.659123 11.6072 0.283369C12.2581 -0.0923848 13.0599 -0.0923848 13.7107 0.283369C14.3616 0.659123 14.7625 1.35355 14.7625 2.10505V7.37905C14.7619 8.54233 13.8188 9.48505 12.6555 9.48505ZM7.3735 9.48505H2.1065C0.943112 9.48505 0 8.54194 0 7.37855C0 6.21517 0.943112 5.27205 2.1065 5.27205H7.3735C8.53689 5.27205 9.48 6.21517 9.48 7.37855C9.48 8.54194 8.53689 9.48505 7.3735 9.48505ZM9.4735 4.21206H7.3735C6.52125 4.21448 5.75155 3.70302 5.42363 2.91638C5.09572 2.12974 5.27423 1.22301 5.87586 0.619375C6.47749 0.0157405 7.38362 -0.165789 8.17135 0.15951C8.95907 0.484809 9.47309 1.2528 9.4735 2.10505V4.21105V4.21206Z" fill="black"/>
</svg>
